<?xml version="1.0" standalone="no"?>
<!DOCTYPE svg PUBLIC "-//W3C//DTD SVG 20010904//EN"
 "http://www.w3.org/TR/2001/REC-SVG-20010904/DTD/svg10.dtd">
<svg version="1.0" xmlns="http://www.w3.org/2000/svg"
 width="300.000000pt" height="450.000000pt" viewBox="0 0 300.000000 450.000000"
 preserveAspectRatio="xMidYMid meet">
<metadata>
Created by potrace 1.10, written by Peter Selinger 2001-2011
</metadata>
<g transform="translate(0.000000,450.000000) scale(0.100000,-0.100000)"
fill="#000000" stroke="none">
<path d="M205 4459 c-77 -61 -102 -72 -157 -67 -45 5 -48 4 -48 -18 0 -20 5
-24 30 -24 16 0 44 9 62 20 18 11 40 20 49 20 8 0 40 18 70 41 30 23 68 47 84
55 l30 13 -35 0 c-26 0 -48 -11 -85 -40z"/>
<path d="M960 4494 c0 -25 65 -129 110 -175 98 -100 217 -144 366 -137 76 4
103 11 160 37 37 17 88 48 112 68 68 55 163 213 129 213 -7 0 -18 -12 -25 -27
l-12 -28 4 28 c2 15 -1 27 -6 27 -12 0 -17 -17 -21 -73 -3 -27 -9 -53 -16 -60
-8 -8 -11 -8 -11 1 0 7 3 12 8 12 4 0 8 27 10 60 1 35 -2 60 -8 60 -5 0 -10
-23 -10 -50 0 -28 -7 -67 -16 -88 -8 -20 -14 -39 -14 -42 1 -2 -4 -6 -12 -8
-9 -2 -8 0 2 7 8 6 12 11 8 11 -3 0 0 21 8 47 15 49 19 123 7 123 -5 0 -8 -22
-9 -48 0 -26 -9 -74 -19 -106 -15 -48 -25 -62 -58 -83 -127 -80 -293 -89 -434
-24 -76 36 -156 99 -149 117 3 8 1 13 -5 11 -6 -1 -16 7 -22 18 -7 11 -14 22
-17 25 -6 6 -10 22 -17 60 -5 25 -5 25 10 4 9 -11 20 -36 25 -55 10 -33 10
-32 11 24 1 52 -10 75 -22 45 -4 -10 -6 -10 -6 0 -1 11 -61 18 -61 6z"/>
<path d="M1070 4485 c-6 -40 2 -101 17 -128 8 -16 17 -27 20 -24 2 3 -1 16 -8
29 -7 12 -16 50 -19 83 -4 33 -9 51 -10 40z"/>
<path d="M550 4445 c-47 -7 -124 -18 -172 -25 -63 -9 -88 -16 -88 -26 0 -8 -4
-14 -8 -14 -5 0 -17 -6 -28 -14 -17 -13 -15 -14 26 -9 25 3 51 10 57 15 9 7
289 66 321 68 2 0 0 5 -3 10 -3 6 -9 9 -13 9 -4 -1 -45 -7 -92 -14z"/>
<path d="M1602 4448 c-17 -17 -16 -54 1 -40 7 6 23 9 35 5 19 -4 22 -2 20 21
-2 19 -8 26 -23 26 -12 0 -26 -5 -33 -12z"/>
<path d="M861 4392 c-7 -20 -23 -57 -36 -82 -15 -31 -24 -71 -27 -122 -4 -67
-10 -86 -49 -154 -25 -44 -63 -93 -87 -113 -26 -22 -54 -59 -72 -96 -32 -67
-114 -156 -169 -184 -20 -11 -56 -24 -80 -31 -29 -8 -59 -26 -85 -53 -51 -52
-128 -94 -197 -107 -29 -6 -54 -12 -56 -13 -2 -2 0 -18 3 -34 6 -30 7 -31 43
-21 20 6 41 14 47 19 6 5 14 6 17 2 4 -3 7 -1 7 5 0 7 4 12 9 12 6 0 30 14 55
31 25 16 78 39 118 50 96 27 150 59 192 117 35 46 65 84 105 131 12 13 21 28
21 32 0 5 6 6 14 3 12 -4 16 5 18 43 2 39 6 48 21 46 10 0 16 2 13 5 -11 11
27 42 52 42 22 0 24 3 17 36 -5 29 -1 44 19 75 14 21 26 45 26 52 0 7 4 17 9
23 6 5 14 44 20 87 12 99 40 138 60 85 7 -20 9 -17 9 15 0 32 -3 37 -23 37
-24 0 -24 0 -8 46 8 25 13 47 11 49 -2 3 -10 -12 -17 -33z m-440 -806 c-15
-17 -95 -56 -116 -56 -12 0 -14 4 -5 19 10 19 26 28 69 36 11 2 29 8 38 14 23
12 29 6 14 -13z"/>
<path d="M490 4376 c-80 -18 -154 -37 -165 -44 -11 -7 -32 -16 -48 -22 -15 -5
-27 -14 -27 -20 0 -6 9 -6 26 0 14 6 36 10 50 10 13 0 24 4 24 9 0 5 26 15 58
21 110 22 267 63 277 71 16 16 -45 8 -195 -25z"/>
<path d="M954 4386 c-8 -14 -14 -35 -12 -47 2 -17 7 -11 20 25 19 51 17 58 -8
22z"/>
<path d="M1167 4396 c-8 -21 0 -107 11 -118 5 -5 8 17 7 57 -3 68 -8 87 -18
61z"/>
<path d="M1535 4400 c-4 -6 -27 -20 -51 -32 -25 -11 -43 -22 -42 -24 6 -5 78
21 78 28 0 5 8 8 18 7 10 0 12 -3 5 -6 -15 -6 -17 -33 -3 -33 5 0 16 13 24 29
14 26 14 30 0 35 -21 8 -22 8 -29 -4z"/>
<path d="M540 4324 c-80 -18 -153 -38 -162 -43 -10 -6 -24 -8 -31 -5 -8 3 -17
-1 -20 -9 -3 -9 -19 -18 -36 -22 -17 -4 -33 -10 -36 -15 -8 -12 62 0 115 20
25 10 63 20 85 24 48 9 215 55 234 66 35 19 -16 13 -149 -16z"/>
<path d="M75 4330 c-12 -13 -14 -20 -5 -20 10 0 9 -4 -1 -17 -12 -15 -12 -16
1 -8 8 5 22 8 31 7 11 -2 15 4 13 20 -1 13 -3 26 -3 31 -2 13 -18 7 -36 -13z"/>
<path d="M1064 4277 c21 -26 41 -47 45 -47 3 0 23 -16 44 -35 24 -22 64 -42
104 -55 90 -28 113 -24 31 5 -70 24 -176 87 -185 110 -2 8 -21 26 -41 42 l-37
28 39 -48z"/>
<path d="M585 4274 c-200 -53 -239 -66 -250 -80 -7 -11 -38 -17 -100 -21 l-90
-6 -46 36 c-69 52 -99 67 -99 48 0 -5 10 -11 23 -13 28 -4 38 -48 10 -48 -15
0 -15 -2 -3 -9 8 -6 18 -8 22 -5 4 3 22 -3 40 -12 27 -14 48 -15 143 -9 60 5
133 9 160 11 71 3 76 6 25 13 l-45 7 45 12 c113 31 270 83 275 92 9 14 -8 12
-110 -16z"/>
<path d="M958 4197 c-7 -83 -52 -181 -105 -227 -27 -24 -38 -44 -45 -78 -20
-108 -90 -195 -201 -249 -37 -19 -68 -41 -72 -52 -8 -27 -95 -105 -145 -131
-25 -13 -70 -24 -104 -27 -48 -4 -72 -12 -111 -39 -52 -35 -124 -64 -156 -64
-11 0 -19 -5 -19 -11 0 -14 87 -5 125 13 19 8 28 8 40 -2 13 -11 14 -8 11 19
-2 17 0 29 4 26 3 -2 14 5 23 16 13 14 30 19 68 19 44 0 144 25 159 40 3 3 24
18 48 34 40 27 92 86 76 86 -13 0 41 37 66 45 14 4 38 16 53 27 15 11 35 17
43 14 11 -4 14 -1 10 12 -4 11 9 32 38 63 37 37 47 57 57 108 7 34 20 69 29
79 9 9 26 34 39 54 12 21 28 41 35 45 27 17 61 171 48 218 -8 26 -9 21 -14
-38z"/>
<path d="M1645 4206 c-71 -49 -153 -76 -235 -76 -22 0 -40 -4 -40 -10 0 -13
43 -13 110 0 54 10 138 48 181 81 28 21 13 26 -16 5z"/>
<path d="M2103 3590 c-125 -26 -210 -98 -258 -217 -24 -60 -26 -77 -21 -136 7
-76 26 -121 57 -137 28 -16 45 -7 57 29 9 25 8 29 -4 24 -8 -3 -24 3 -35 13
-12 11 -24 18 -28 18 -17 -3 -31 10 -30 30 0 11 3 16 5 9 6 -13 92 23 123 51
40 36 27 84 -19 77 -22 -4 -67 -49 -80 -82 -13 -30 -30 -39 -30 -16 0 7 6 19
12 25 10 10 10 15 -1 21 -11 7 -9 13 8 30 11 11 21 24 20 29 0 4 17 16 40 27
22 12 51 31 63 42 36 34 118 67 131 54 17 -17 -2 -40 -59 -71 l-50 -26 18 -30
c10 -16 18 -37 18 -46 0 -25 19 -23 19 2 1 11 1 29 2 40 0 11 4 20 9 20 14 0
19 -15 10 -30 -5 -9 -5 -20 2 -28 17 -19 40 40 29 71 -10 27 3 57 25 57 8 0
17 -7 20 -15 4 -10 14 -13 28 -9 26 6 75 -11 90 -32 10 -13 14 -13 31 0 19 13
18 15 -20 33 -22 10 -41 21 -43 26 -2 4 -10 7 -18 7 -25 0 -93 39 -103 59 -12
21 4 40 29 36 29 -6 168 -96 184 -120 10 -15 26 -25 41 -25 43 0 78 -41 86
-101 l6 -54 2 50 c2 46 3 49 16 31 22 -29 20 -103 -4 -118 -18 -11 -18 -12 1
-28 18 -15 19 -20 9 -51 -14 -43 -47 -86 -57 -76 -5 4 0 21 9 36 13 22 15 35
7 55 -12 32 -27 33 -56 5 l-23 -22 29 -42 c27 -39 28 -44 14 -64 -13 -18 -19
-20 -30 -10 -11 9 -24 9 -57 -1 -23 -7 -53 -14 -65 -16 -41 -4 -34 -11 18 -18
72 -10 62 -34 -12 -28 -9 1 -28 -4 -42 -12 -15 -7 -38 -11 -52 -8 -25 4 -25 5
-4 19 11 8 26 11 33 7 9 -5 9 -4 0 6 -10 10 -18 10 -42 0 -17 -7 -28 -16 -25
-21 3 -5 -1 -6 -9 -3 -15 5 -34 -13 -24 -22 12 -12 87 -11 152 2 262 54 362
371 180 573 -74 82 -217 126 -332 101z m227 -64 c0 6 63 -39 86 -61 17 -16 24
-43 11 -41 -36 7 -63 22 -96 55 -21 21 -45 40 -54 44 -9 3 -17 11 -17 16 0 6
15 4 35 -5 19 -8 35 -11 35 -8z m-230 0 c0 -16 -14 -22 -70 -31 -25 -4 -52
-23 -94 -63 -47 -46 -57 -52 -51 -32 20 72 97 138 148 128 15 -3 27 -1 27 3 0
5 9 9 20 9 11 0 20 -6 20 -14z m-135 -204 c-38 -32 -85 -61 -85 -53 0 17 54
61 74 61 12 0 16 -3 11 -8z"/>
<path d="M584 3523 c-32 -26 -46 -59 -46 -107 0 -97 44 -173 127 -222 41 -23
46 -24 72 -10 33 17 71 56 107 110 19 29 26 52 26 89 0 43 -2 48 -15 37 -14
-11 -15 -8 -13 26 2 21 0 39 -3 39 -4 0 -16 8 -27 18 -26 23 -54 19 -67 -11
-12 -27 -25 -29 -25 -2 0 11 -7 20 -15 20 -8 0 -15 -4 -15 -10 0 -5 5 -10 10
-10 6 0 9 -6 8 -12 -2 -9 10 -12 43 -10 53 3 63 -5 83 -72 13 -43 13 -47 -5
-56 -12 -7 -19 -21 -19 -39 0 -21 -5 -28 -17 -27 -11 0 -19 -7 -21 -21 -4 -25
-32 -39 -43 -21 -6 9 -11 9 -22 0 -25 -21 -49 -3 -44 31 4 31 4 31 -13 9 l-18
-22 -26 35 c-14 18 -26 45 -26 59 0 13 -7 31 -15 40 -12 11 -13 21 -5 41 6 15
7 31 4 37 -3 5 9 23 27 39 24 21 35 26 40 17 5 -8 1 -16 -11 -20 -25 -9 -26
-28 -2 -21 21 5 42 -16 45 -46 1 -15 4 -17 14 -9 18 15 16 45 -3 56 -9 5 -17
20 -18 33 -1 30 -42 37 -72 12z"/>
<path d="M694 3395 c-7 -33 -22 -55 -35 -55 -5 0 -6 8 -3 18 5 14 4 15 -5 2
-11 -16 -15 -48 -4 -37 3 4 12 2 18 -3 9 -8 14 -4 19 15 9 35 22 31 42 -10 9
-20 21 -38 26 -41 17 -11 22 7 8 29 -8 12 -24 42 -36 67 l-22 45 -8 -30z"/>
<path d="M2195 3382 c-27 -5 -34 -13 -44 -50 -9 -29 -7 -32 11 -32 14 0 18 5
14 15 -3 8 -1 15 5 15 6 0 8 9 4 20 -9 28 16 26 49 -5 30 -28 41 -31 52 -13 4
6 3 8 -4 4 -6 -3 -14 -1 -19 6 -16 25 -48 44 -68 40z"/>
<path d="M2337 3346 c4 -5 0 -7 -9 -4 -11 5 -14 0 -10 -18 2 -13 10 -28 18
-34 7 -6 10 -18 7 -26 -3 -9 1 -14 12 -14 10 0 23 -7 30 -17 11 -14 13 -12 23
16 13 37 6 88 -13 88 -7 0 -10 -8 -7 -19 5 -20 -8 -24 -26 -6 -8 8 -6 16 10
30 l22 19 -31 -3 c-18 -1 -29 -6 -26 -12z"/>
<path d="M1205 3320 c-5 -9 29 -42 41 -39 27 5 48 -5 82 -36 40 -35 59 -37 42
-4 -17 31 -78 71 -120 79 -22 4 -42 4 -45 0z"/>
<path d="M1138 3303 c-20 -3 -28 -12 -33 -34 -9 -40 0 -47 22 -20 22 28 41 21
72 -24 13 -19 30 -35 38 -35 9 0 0 21 -28 60 -23 33 -42 59 -43 59 -1 -1 -13
-4 -28 -6z"/>
<path d="M2210 3290 c-8 -5 -26 -6 -39 -3 -17 4 -22 2 -17 -6 4 -6 16 -11 27
-11 21 0 24 -8 9 -30 -9 -13 -13 -11 -30 10 -22 28 -25 23 -8 -15 15 -33 22
-32 53 10 28 36 31 61 5 45z"/>
<path d="M25 3270 c-4 -6 -11 -8 -16 -5 -5 4 -9 2 -9 -4 0 -10 13 -15 68 -26
18 -4 45 -17 60 -30 25 -21 28 -22 28 -5 0 11 -2 17 -5 15 -2 -3 -17 7 -33 20
-16 14 -41 25 -54 25 -14 0 -22 4 -19 10 3 6 2 10 -4 10 -5 0 -13 -5 -16 -10z"/>
<path d="M2002 3230 c-7 -11 -8 -20 -3 -20 4 0 19 -23 32 -50 l24 -50 17 22
c22 28 23 39 3 32 -9 -4 -15 0 -15 10 0 8 -9 24 -20 34 -21 19 -21 19 -1 25
22 5 45 -9 54 -33 4 -8 5 -1 3 15 -2 27 -6 30 -42 33 -30 2 -42 -2 -52 -18z"/>
<path d="M2236 3210 c-12 -25 -16 -44 -10 -49 12 -11 134 -20 128 -9 -3 4 -11
8 -19 8 -7 0 -18 14 -24 31 -10 28 -36 58 -51 59 -3 0 -14 -18 -24 -40z m48
-16 c7 -17 0 -34 -13 -34 -10 0 -21 37 -13 44 10 10 20 6 26 -10z"/>
<path d="M1060 3186 c0 -101 98 -209 179 -199 45 6 81 38 81 72 l0 26 -25 -27
c-36 -39 -67 -44 -117 -19 -24 12 -40 21 -36 21 3 0 -6 13 -22 29 -34 33 -49
79 -30 91 9 6 7 13 -9 29 l-21 21 0 -44z"/>
<path d="M2349 3211 c6 -10 7 -22 3 -26 -4 -4 0 -6 8 -3 17 5 21 30 5 40 -18
14 -26 8 -16 -11z"/>
<path d="M1390 3203 c-1 -27 -25 -53 -49 -53 -22 0 -27 -15 -12 -39 14 -21 81
48 81 83 0 29 -20 37 -20 9z"/>
<path d="M1947 3212 c-10 -2 -17 -11 -15 -20 5 -25 25 -25 31 0 7 26 7 26 -16
20z"/>
<path d="M47 3183 c-11 -11 -8 -24 6 -22 32 4 46 -3 50 -23 3 -21 4 -21 11 -5
15 32 -43 75 -67 50z"/>
<path d="M1118 3160 c6 -17 17 -24 43 -25 57 -3 98 -16 108 -33 13 -23 23 -10
16 20 -6 22 -15 26 -73 35 -37 6 -75 14 -85 18 -14 6 -16 4 -9 -15z"/>
<path d="M2136 3172 c-3 -5 1 -16 10 -23 10 -8 13 -21 9 -36 l-6 -24 23 20
c12 12 26 21 30 21 5 0 6 5 3 11 -4 6 -10 8 -13 5 -3 -4 -16 3 -28 15 -12 11
-25 16 -28 11z"/>
<path d="M1995 3130 c4 -11 2 -20 -4 -20 -6 0 -11 -7 -11 -15 0 -18 5 -18 30
-5 17 9 18 14 8 35 -13 30 -32 34 -23 5z"/>
<path d="M2112 3143 c-6 -2 -10 -9 -6 -14 3 -5 -2 -9 -11 -9 -11 0 -15 -6 -11
-17 9 -32 -18 -52 -81 -61 -52 -7 -64 -6 -87 11 -15 11 -29 17 -32 14 -10 -9
51 -65 78 -72 23 -6 64 7 78 24 3 4 16 11 30 17 18 8 30 26 42 63 9 28 15 51
15 50 -1 0 -8 -3 -15 -6z"/>
<path d="M127 3113 c-12 -11 -8 -23 8 -23 8 0 15 -7 15 -15 0 -15 12 -20 23
-9 7 7 -21 54 -32 54 -4 0 -11 -3 -14 -7z"/>
<path d="M2223 3093 c-4 -10 -13 -23 -21 -29 -42 -31 51 -34 109 -3 17 8 23 7
35 -8 12 -17 13 -17 14 0 0 9 -4 17 -8 17 -5 0 -18 9 -30 20 -12 12 -22 16
-22 10 0 -5 -16 -10 -36 -10 -21 0 -33 4 -29 10 3 6 4 10 0 10 -3 0 -9 -8 -12
-17z"/>
<path d="M2863 3065 c-82 -22 -148 -60 -208 -120 -94 -95 -143 -223 -131 -347
21 -229 197 -411 429 -444 32 -4 47 -3 47 5 0 6 -9 11 -20 11 -13 0 -18 5 -14
15 5 12 10 13 20 4 11 -9 14 -8 14 5 0 14 -6 16 -37 10 -21 -4 -43 -11 -49
-15 -7 -6 -16 -3 -24 6 -7 9 -21 13 -31 10 -11 -4 -19 -2 -19 2 0 5 -16 15
-36 22 -52 19 -34 25 20 7 66 -23 176 -20 176 3 0 4 -37 7 -82 7 -71 -1 -91 3
-138 26 -60 30 -125 87 -135 118 -3 11 -11 20 -17 20 -6 0 -9 3 -6 6 4 3 -1
22 -9 42 -21 51 -20 149 3 213 27 75 101 149 179 178 48 19 74 22 133 18 39
-2 72 -1 72 3 0 9 -62 21 -100 20 -14 0 -37 0 -52 0 -15 -1 -30 -5 -33 -10 -4
-6 -15 -10 -27 -10 -11 0 -43 -19 -72 -42 -59 -50 -80 -73 -97 -108 -6 -14
-15 -32 -20 -42 -4 -9 -11 -51 -15 -94 -4 -43 -10 -71 -13 -61 -4 9 -4 48 -1
87 4 52 2 70 -7 70 -26 0 -12 20 15 21 24 0 24 1 7 8 -11 5 -24 6 -29 3 -5 -3
-6 0 -2 6 4 6 13 9 21 6 7 -3 18 3 23 13 20 36 88 101 137 130 67 40 132 56
205 51 72 -5 80 7 10 17 -62 9 -96 1 -195 -43 -55 -25 -96 -52 -132 -88 -29
-28 -53 -48 -53 -45 0 4 5 12 11 18 6 6 12 22 13 35 4 33 48 90 100 130 22 18
44 38 48 44 15 23 132 67 195 72 34 2 63 9 63 13 0 13 -78 10 -137 -6z"/>
<path d="M2110 3023 c-14 -20 -42 -47 -63 -59 l-39 -21 33 -12 c45 -15 49 -14
49 13 0 13 13 37 29 52 20 20 27 35 22 47 -6 16 -10 13 -31 -20z"/>
<path d="M2505 2999 c-36 -51 -121 -113 -188 -136 -68 -23 -185 -23 -258 -1
-32 10 -81 34 -110 54 -37 25 -48 29 -34 13 11 -12 54 -38 95 -57 62 -29 90
-36 170 -41 l95 -7 -57 -8 c-122 -17 -251 29 -349 124 -32 32 -59 54 -59 50 0
-4 7 -13 15 -20 8 -7 15 -18 15 -25 0 -7 7 -16 16 -19 10 -4 13 -13 9 -27 -6
-18 -4 -20 14 -14 15 5 21 2 21 -9 0 -9 9 -16 20 -16 11 0 20 -6 20 -14 0 -9
7 -12 19 -9 12 3 26 -3 37 -16 10 -11 21 -17 24 -12 3 5 30 2 60 -6 32 -8 71
-11 94 -7 25 4 36 3 32 -4 -3 -5 1 -13 10 -16 22 -8 24 -8 24 8 0 8 21 22 48
31 26 9 62 23 81 31 27 12 36 12 49 2 13 -11 15 -10 10 3 -8 20 30 59 55 59 9
0 17 5 17 10 0 6 -4 10 -10 10 -5 0 4 23 21 51 38 61 33 75 -6 18z"/>
<path d="M2869 2989 c-61 -9 -125 -39 -176 -84 -58 -49 -55 -63 5 -21 68 48
170 79 243 74 52 -4 59 -2 59 14 0 10 -8 19 -17 20 -46 4 -71 3 -114 -3z"/>
<path d="M7 2965 c-7 -17 1 -45 13 -45 9 0 6 47 -2 56 -3 3 -8 -2 -11 -11z"/>
<path d="M135 2970 c-3 -6 -2 -17 3 -27 9 -15 11 -14 21 4 8 17 8 22 -4 27 -8
3 -17 1 -20 -4z"/>
<path d="M856 2925 c-8 -22 13 -60 26 -47 12 12 7 54 -8 59 -6 2 -14 -3 -18
-12z"/>
<path d="M103 2883 c-7 -15 -11 -28 -9 -31 8 -7 47 39 41 48 -10 16 -19 11
-32 -17z"/>
<path d="M155 2868 c-21 -55 -48 -83 -107 -115 -43 -24 -64 -53 -38 -53 6 0
10 4 10 9 0 5 13 9 29 9 26 -1 61 20 61 37 0 3 11 18 24 32 23 25 54 108 44
119 -3 3 -13 -14 -23 -38z"/>
<path d="M896 2805 c-4 -14 -11 -23 -16 -20 -5 3 -11 1 -15 -5 -3 -5 -1 -10 4
-10 6 0 11 -4 11 -10 0 -5 -7 -10 -15 -10 -9 0 -15 -9 -15 -25 0 -38 16 -30
41 20 24 49 59 61 78 28 9 -16 12 -16 20 -3 16 24 -10 52 -51 57 -31 3 -37 0
-42 -22z"/>
<path d="M1797 2797 c-8 -6 -5 -7 6 -3 9 3 17 1 17 -3 0 -18 91 -61 159 -76
129 -27 188 -64 276 -175 56 -70 152 -156 163 -145 3 3 -3 12 -14 19 -10 8
-32 26 -47 40 -15 14 -33 26 -38 26 -6 0 -7 5 -4 10 3 6 2 10 -4 10 -6 0 -14
12 -17 28 -4 15 -16 33 -26 40 -10 7 -18 22 -18 34 0 12 -5 18 -13 15 -7 -3
-28 8 -47 24 -32 28 -32 29 -9 30 20 0 18 3 -11 13 -19 8 -38 11 -42 9 -5 -2
-8 4 -8 14 0 15 -2 16 -10 3 -9 -13 -11 -13 -19 0 -6 8 -20 15 -33 15 -13 0
-29 4 -35 8 -7 5 -18 5 -23 2 -6 -4 -16 -2 -23 4 -7 5 -29 12 -50 14 -35 3
-81 33 -73 46 6 9 -44 7 -57 -2z"/>
<path d="M1536 2769 c-65 -18 -70 -19 -87 -3 -17 15 -24 13 -20 -8 2 -12 -37
-10 -44 2 -11 17 -112 11 -168 -10 -30 -11 -80 -38 -111 -60 -31 -22 -63 -40
-71 -40 -8 0 -15 -4 -15 -9 0 -5 -3 -18 -7 -28 -6 -17 -6 -17 14 0 25 21 57
23 49 2 -4 -12 -2 -13 13 -3 11 6 17 17 15 23 -5 13 23 42 46 47 8 2 20 10 27
18 11 13 12 13 13 0 1 -11 4 -10 9 4 6 16 19 19 88 21 48 1 93 -3 110 -11 15
-7 22 -13 15 -13 -7 -1 -10 -5 -7 -11 3 -5 0 -10 -9 -10 -26 0 -46 12 -46 28
0 11 -3 13 -10 6 -11 -11 -3 -44 10 -44 5 0 6 -9 3 -20 -6 -22 12 -28 20 -7 3
8 9 6 19 -7 14 -18 15 -18 31 4 10 14 13 28 8 34 -14 17 6 55 31 61 13 3 35 2
48 -4 23 -9 24 -10 3 -10 -37 -1 -51 -11 -46 -32 5 -19 23 -27 23 -10 0 5 9
13 20 16 11 3 23 17 26 31 6 25 18 31 29 14 10 -16 30 -12 55 10 26 23 35 24
76 10 16 -5 40 -11 54 -13 14 -2 37 -9 52 -17 23 -11 26 -17 21 -49 -7 -43 -3
-37 -30 -45 -19 -6 -23 -3 -23 12 0 15 5 19 20 15 24 -6 25 0 4 32 -21 33 -48
34 -40 2 4 -19 0 -25 -26 -35 -22 -8 -34 -8 -38 -2 -11 18 -78 24 -96 9 -13
-10 -17 -10 -24 0 -6 11 -9 11 -13 0 -5 -12 -7 -12 -15 0 -7 10 -11 10 -17 1
-4 -6 -5 -14 -2 -17 3 -3 -3 -14 -14 -26 -24 -26 -24 -37 -1 -37 21 0 52 30
52 50 0 7 3 11 6 7 8 -8 -37 -117 -48 -117 -4 0 -8 5 -8 11 0 6 -7 9 -15 5 -8
-3 -15 -1 -15 4 0 6 5 10 10 10 7 0 6 5 -2 13 -6 8 -23 12 -37 10 l-26 -4 23
13 c12 8 19 17 16 21 -4 4 0 7 9 7 10 0 17 7 17 15 0 20 -13 19 -40 -5 -13
-11 -27 -20 -31 -20 -19 0 -20 -48 -1 -79 18 -29 36 -34 26 -6 -8 19 14 29 31
15 17 -14 20 -50 5 -50 -5 0 -10 8 -10 18 -1 13 -4 12 -14 -7 -7 -13 -11 -33
-8 -44 3 -14 1 -18 -6 -13 -7 4 -12 13 -12 19 0 7 -9 23 -20 37 -15 20 -21 23
-31 13 -9 -9 -9 -13 -2 -13 6 0 20 -16 32 -35 l20 -35 -21 -11 c-11 -6 -16
-14 -11 -18 6 -3 13 -13 16 -21 4 -13 6 -12 6 1 1 26 26 42 40 25 9 -11 7 -15
-9 -19 -23 -6 -27 -27 -5 -27 8 0 19 9 25 20 6 11 15 18 20 15 12 -7 1 -37
-17 -48 -7 -5 -11 -12 -8 -18 9 -14 25 -11 25 6 0 10 10 15 30 15 17 0 30 -4
30 -10 0 -5 -7 -7 -15 -3 -12 4 -11 -2 5 -30 18 -30 19 -39 8 -56 -7 -12 -16
-21 -20 -21 -5 0 -8 -11 -8 -25 0 -14 4 -25 9 -25 19 0 -13 -68 -39 -84 -40
-23 -53 -21 -39 7 11 20 9 20 -17 -4 -56 -52 -95 -69 -157 -69 -71 0 -83 17
-41 61 15 16 32 29 37 29 6 0 29 16 53 35 26 21 53 35 71 35 l28 0 -25 19
c-20 16 -22 22 -12 34 8 10 9 17 3 21 -5 4 -14 -1 -19 -9 -14 -26 -34 6 -62
104 -24 79 -28 86 -53 89 -15 2 -27 7 -27 12 0 5 7 7 15 4 8 -4 21 -1 29 5 10
9 17 7 26 -5 9 -10 22 -13 37 -9 17 4 23 1 23 -10 0 -9 -4 -13 -10 -10 -5 3
-10 1 -10 -4 0 -16 29 -13 46 3 12 13 10 17 -18 31 -22 10 -34 12 -36 5 -5
-13 -32 6 -32 22 0 14 -40 64 -48 60 -4 -2 -10 11 -13 28 -4 18 -12 37 -18 43
-16 16 -13 32 3 18 8 -7 17 -8 20 -3 8 14 -28 21 -48 10 -14 -8 -15 -12 -1
-38 9 -16 18 -50 22 -75 5 -39 9 -45 30 -45 13 0 22 -4 19 -9 -3 -5 -15 -7
-26 -4 -17 5 -20 0 -20 -26 0 -18 4 -30 9 -27 5 4 22 1 37 -4 22 -9 25 -13 14
-23 -10 -9 -13 -9 -17 1 -7 18 -53 15 -53 -4 0 -11 6 -15 20 -11 11 3 20 2 20
-3 0 -4 -13 -10 -29 -12 -23 -3 -32 1 -39 16 -21 44 -22 59 -5 106 16 45 16
50 1 67 -10 11 -14 28 -11 46 6 31 -7 36 -24 8 -13 -21 -80 -34 -87 -16 -2 6
-11 6 -25 -3 -17 -10 -21 -10 -21 0 -1 9 -4 8 -13 -2 -7 -9 -23 -24 -37 -33
-23 -16 -23 -17 -3 -17 11 0 25 6 31 13 13 15 62 21 62 7 0 -6 -11 -10 -24
-10 -28 0 -30 -26 -4 -41 12 -7 22 -2 37 16 11 14 21 31 23 36 5 16 78 -1 85
-19 4 -8 -1 -20 -11 -27 -9 -7 -14 -19 -10 -28 3 -8 -4 -24 -17 -36 -25 -23
-39 -20 -19 4 7 9 10 18 7 21 -3 3 -11 -5 -17 -18 -18 -34 -62 -78 -72 -72 -4
3 -8 0 -8 -6 0 -6 -8 -4 -17 5 -14 14 -15 22 -6 46 13 33 1 38 -33 14 -12 -8
-24 -11 -28 -8 -3 3 -6 -1 -6 -10 0 -11 8 -17 25 -17 14 0 25 -5 25 -11 0 -6
-7 -9 -15 -5 -8 3 -15 1 -15 -4 0 -6 -6 -10 -13 -10 -7 0 -18 -9 -25 -20 -9
-15 -23 -20 -52 -20 -23 0 -40 -5 -40 -11 0 -7 10 -9 24 -5 14 3 27 2 31 -4 3
-5 13 -6 22 -3 12 5 14 3 8 -7 -5 -9 -4 -11 4 -6 6 4 9 11 6 16 -8 12 33 33
72 36 18 2 41 8 52 13 11 6 29 11 40 11 12 0 21 5 21 10 0 6 7 10 15 10 8 0
15 5 15 12 0 8 5 7 15 -3 14 -14 14 -19 -2 -49 -30 -62 -75 -88 -163 -95 -14
-1 -41 -5 -62 -9 -30 -6 -40 -4 -57 13 -30 30 -74 50 -107 49 -24 -1 -35 -11
-64 -55 -19 -30 -37 -64 -40 -75 -4 -14 -18 -25 -45 -32 -24 -7 -41 -19 -43
-29 -6 -29 28 -117 44 -117 11 0 13 -6 9 -20 -5 -16 -2 -20 15 -20 15 0 20 5
17 14 -3 7 1 25 8 40 10 18 10 28 3 32 -6 4 -9 3 -5 -2 3 -5 -1 -18 -9 -29
-13 -17 -14 -17 -14 -1 0 11 -4 15 -13 10 -8 -5 -7 -2 2 10 12 15 12 19 -8 32
-29 20 -24 68 7 72 16 2 22 -2 22 -15 0 -15 2 -16 10 -3 9 15 25 7 25 -13 0
-7 9 -34 19 -60 14 -36 16 -51 8 -59 -9 -9 -12 -8 -12 4 0 9 -3 19 -7 21 -5 3
-8 -13 -8 -36 0 -28 -5 -41 -15 -43 -8 -1 -23 -5 -33 -9 -12 -5 -17 -2 -17 11
0 15 -2 16 -9 5 -7 -11 -13 -8 -26 13 -22 33 -34 33 -28 1 5 -23 4 -24 -27
-12 -27 10 -33 10 -41 -6 -6 -9 -16 -17 -23 -17 -14 0 -39 -44 -42 -73 -1 -10
-6 -23 -12 -29 -6 -6 -8 -25 -5 -43 5 -29 3 -33 -13 -31 -11 2 -23 16 -30 36
l-11 33 -6 -32 c-6 -31 8 -71 26 -71 4 0 5 5 2 10 -3 6 1 10 9 10 10 0 13 -6
10 -15 -4 -8 -1 -15 5 -15 6 0 11 8 11 17 0 13 3 14 11 6 9 -9 15 -9 24 0 16
17 28 67 15 67 -5 0 -10 -11 -10 -25 0 -17 -5 -25 -17 -24 -10 0 -13 3 -6 5 7
3 10 16 7 32 -7 43 9 87 34 90 21 3 24 8 26 42 1 21 41 25 66 7 12 -8 31 -12
42 -9 21 5 21 5 -1 -17 -12 -12 -26 -33 -31 -46 -9 -24 -35 -31 -92 -26 -10 1
-18 -3 -18 -8 0 -6 9 -11 19 -11 17 0 18 -3 8 -36 -6 -20 -17 -38 -24 -41 -11
-4 -10 -9 3 -24 23 -25 59 -26 49 -2 -4 10 -9 33 -11 50 -4 28 -2 32 13 26 10
-4 26 -16 35 -28 12 -13 17 -16 18 -6 0 7 -11 24 -26 37 -22 22 -23 24 -6 24
11 0 27 11 36 25 9 14 21 23 26 20 11 -7 85 38 114 70 23 26 76 42 76 24 0 -7
10 -9 28 -4 39 9 47 22 12 19 -16 -1 -30 2 -30 7 0 13 -34 11 -47 -2 -8 -8
-16 -8 -30 1 -10 7 -12 10 -3 7 8 -2 21 1 27 9 10 10 10 16 -2 27 -12 12 -12
17 -1 33 12 15 16 16 30 5 14 -11 16 -11 16 2 0 9 -10 17 -22 19 -13 2 -24 11
-26 22 -2 10 -19 32 -38 48 -19 17 -34 33 -34 37 1 38 100 53 165 24 55 -24
72 -41 97 -90 17 -34 19 -45 9 -57 -7 -9 -8 -16 -2 -20 5 -4 12 -2 16 3 10 17
45 3 73 -30 47 -56 51 -63 45 -91 -9 -47 30 -76 115 -85 34 -4 42 -2 42 11 0
9 -7 16 -16 16 -8 0 -13 4 -10 9 3 5 15 7 26 4 14 -4 20 0 20 11 0 9 8 16 19
16 27 0 51 10 51 22 0 6 -11 7 -24 4 -14 -3 -28 -1 -31 5 -4 6 -17 14 -29 19
-20 8 -20 9 4 10 25 1 25 1 5 16 -19 15 -19 15 10 8 27 -7 29 -6 16 9 -12 15
-11 17 3 17 9 0 16 -6 16 -13 0 -14 40 -37 65 -37 25 0 65 23 65 37 0 18 -10
16 -27 -4 -10 -14 -13 -14 -11 -3 2 8 -3 14 -9 12 -7 -1 -13 4 -13 11 0 8 6
14 13 15 32 3 48 10 62 28 10 13 14 15 15 5 0 -8 -8 -20 -17 -27 -14 -10 -15
-15 -6 -25 9 -9 17 -6 36 15 13 14 31 26 39 26 8 0 25 11 38 25 13 14 29 25
35 25 9 0 11 20 7 70 l-5 70 49 22 c29 12 70 22 101 22 52 1 87 15 42 17 -13
1 -43 3 -67 4 -30 2 -45 -1 -49 -11 -9 -25 -25 -15 -19 11 4 15 2 25 -5 25 -6
0 -44 24 -84 53 l-72 53 18 25 c11 13 22 29 27 34 33 43 78 113 80 125 4 19
26 33 30 20 2 -6 8 -8 13 -4 5 3 14 2 20 -2 8 -4 7 -9 -2 -14 -8 -6 2 -18 36
-42 88 -61 91 -64 76 -81 -14 -18 -7 -37 15 -37 17 0 19 30 2 30 -7 0 -2 9 11
19 25 19 37 51 20 51 -6 0 -8 4 -4 9 3 5 0 13 -6 16 -17 11 -22 -2 -9 -25 10
-18 9 -24 -1 -31 -18 -11 -29 -2 -22 18 5 13 2 15 -12 9 -18 -6 -18 -6 -2 12
21 23 22 42 1 42 -11 0 -14 -5 -10 -16 5 -12 2 -15 -10 -10 -8 3 -22 6 -30 6
-15 0 -35 39 -27 52 2 4 15 1 28 -8 14 -9 31 -14 38 -11 8 3 20 1 28 -3 8 -5
19 -5 26 1 7 6 18 7 24 3 9 -5 7 -10 -7 -15 -18 -7 -17 -8 3 -8 23 -1 40 15
23 21 -8 2 -8 11 -1 28 10 26 11 25 17 -29 5 -44 25 -60 52 -42 17 10 6 57
-15 65 -11 5 -13 2 -9 -9 3 -10 2 -13 -4 -10 -6 4 -10 12 -9 18 4 34 -2 68
-12 65 -7 -2 -24 8 -39 23 -31 31 -115 59 -174 58 -23 0 -72 -9 -110 -20z
m-258 -418 c7 -4 14 -14 15 -22 2 -8 6 -19 10 -26 4 -7 -1 -14 -14 -18 -15 -5
-25 -2 -31 9 -12 21 -38 21 -38 0 0 -10 6 -14 14 -11 10 4 12 0 9 -14 -3 -10
0 -19 6 -19 6 0 8 7 4 17 -4 11 -3 14 5 9 7 -4 12 -14 12 -21 0 -8 6 -12 14
-9 8 3 17 0 21 -6 6 -9 9 -9 15 -1 5 8 14 6 30 -7 l24 -19 -29 -26 c-17 -15
-49 -34 -71 -43 -23 -9 -46 -26 -52 -37 -6 -13 -11 -16 -11 -8 -1 8 -9 23 -18
33 -16 18 -16 18 3 12 18 -7 18 -7 2 13 -10 11 -18 24 -18 30 0 5 -13 29 -29
53 -16 24 -27 49 -24 56 2 6 25 19 51 28 26 10 54 21 62 26 19 11 22 11 38 1z
m-458 -69 c3 -3 -3 -2 -13 1 -28 11 -41 -3 -19 -19 12 -8 28 -11 39 -7 16 6
16 5 5 -10 -15 -18 -70 -16 -83 4 -6 10 -11 10 -23 -1 -14 -11 -16 -10 -10 4
3 9 14 16 24 16 10 0 22 9 25 20 5 17 10 18 28 9 12 -7 24 -14 27 -17z m300
-64 c0 -16 -4 -28 -10 -28 -5 0 -10 5 -10 12 0 6 -10 23 -22 36 -18 20 -19 24
-6 19 10 -3 20 -1 24 5 9 15 24 -11 24 -44z m-236 13 c3 -4 18 -6 32 -3 19 3
31 -1 41 -13 12 -18 13 -18 13 3 0 29 21 28 77 -4 36 -22 44 -31 40 -50 -4
-23 9 -34 41 -34 13 0 14 2 3 9 -9 6 -10 11 -2 15 16 10 31 -2 25 -19 -4 -9 3
-16 20 -21 30 -7 29 -5 16 -39 -8 -20 -7 -27 5 -31 8 -4 15 -15 15 -26 0 -15
-4 -18 -17 -13 -10 5 -43 11 -73 14 -30 4 -65 12 -77 19 -27 15 -36 15 -28 1
4 -6 -2 -5 -14 3 -23 14 -24 17 -12 37 5 8 14 10 22 5 12 -6 12 -5 1 8 -8 10
-9 18 -3 22 14 9 2 36 -15 36 -8 0 -14 -9 -14 -20 0 -14 -7 -20 -24 -20 -19 0
-26 7 -31 29 -3 15 -19 41 -35 56 -17 16 -30 32 -30 37 0 11 17 10 24 -1z
m310 -246 c10 -7 15 -19 11 -25 -4 -6 1 -20 11 -31 17 -19 16 -19 -17 -12 -19
3 -35 10 -37 14 -2 4 -10 5 -19 2 -8 -3 -19 0 -23 8 -11 17 -24 5 -17 -16 5
-10 20 -15 54 -15 52 0 99 -19 53 -21 -14 -1 -28 -1 -32 0 -5 0 -8 -4 -8 -10
0 -11 -58 -3 -72 10 -11 10 -21 104 -11 98 5 -3 15 -2 23 4 22 13 62 10 84 -6z"/>
<path d="M1087 2103 c-4 -3 -7 -14 -7 -24 0 -9 -6 -20 -12 -22 -7 -3 -3 -6 10
-6 13 -1 22 5 22 13 0 8 3 21 6 30 6 16 -7 22 -19 9z"/>
<path d="M1021 2753 c0 -7 -8 -10 -16 -7 -10 4 -15 0 -15 -14 0 -12 4 -23 9
-26 13 -9 33 21 28 41 -3 10 -5 13 -6 6z"/>
<path d="M1623 2735 c-13 -5 -23 -13 -23 -17 0 -4 -7 -5 -15 -2 -11 5 -13 2
-9 -10 7 -18 39 -14 63 9 20 19 10 32 -16 20z"/>
<path d="M2838 2732 c-16 -7 -28 -18 -28 -24 0 -5 -7 -8 -15 -4 -8 3 -14 0
-12 -7 1 -8 -14 -12 -46 -12 -26 0 -47 -3 -47 -7 0 -5 5 -8 11 -8 5 0 7 -4 4
-10 -3 -5 -2 -10 4 -10 5 0 13 5 16 10 3 6 14 9 23 9 15 -1 15 -2 0 -6 -10 -2
-18 -9 -18 -15 0 -12 5 -10 52 22 21 14 38 30 38 37 0 7 6 10 13 8 6 -2 34 -6
61 -9 27 -2 52 -9 55 -15 6 -8 15 -9 51 -2 3 1 -6 10 -20 21 -16 12 -41 20
-67 20 -23 0 -43 4 -45 8 -1 4 -15 2 -30 -6z"/>
<path d="M1227 2692 c-18 -4 -18 -4 0 -18 23 -17 33 -17 33 0 0 18 -10 24 -33
18z"/>
<path d="M1883 2668 c2 -7 10 -12 16 -10 6 1 11 -2 11 -6 0 -5 11 -14 25 -20
15 -7 25 -8 25 -2 0 6 8 10 18 10 14 0 15 -2 2 -10 -8 -5 -10 -10 -5 -10 6 0
2 -7 -8 -15 -22 -16 -19 -53 5 -69 13 -8 22 -6 38 9 11 10 18 25 16 32 -6 14
3 17 21 5 32 -20 21 -80 -19 -95 -9 -3 -29 -24 -44 -47 -21 -31 -24 -44 -16
-52 14 -14 15 -28 3 -28 -6 0 -26 -15 -45 -32 -34 -32 -43 -57 -45 -121 -1
-18 -6 -27 -13 -24 -7 2 -13 9 -13 15 0 7 -4 12 -9 11 -5 0 -18 18 -28 40 -10
23 -21 41 -25 41 -3 0 -3 -3 0 -7 4 -3 2 -12 -4 -19 -9 -10 -7 -15 5 -20 9 -3
13 -10 10 -16 -3 -5 6 -21 20 -35 26 -26 33 -48 19 -56 -5 -3 -35 -8 -67 -12
-43 -6 -57 -5 -52 4 4 6 3 11 -2 11 -6 0 -13 -7 -16 -16 -3 -8 -14 -14 -23
-12 -10 2 -27 -5 -38 -15 -12 -11 -29 -17 -43 -14 -21 4 -22 2 -16 -26 3 -17
15 -40 25 -51 11 -11 18 -29 17 -40 -2 -14 4 -22 21 -26 30 -7 58 -45 40 -56
-8 -4 -9 -3 -5 4 5 8 0 12 -12 12 -15 0 -19 -5 -15 -20 3 -11 4 -20 2 -21 -2
0 -26 -2 -54 -5 -92 -9 -115 -14 -115 -29 0 -18 -68 -11 -89 10 -23 23 -5 34
40 24 23 -6 43 -8 45 -7 1 2 -15 22 -36 46 -26 28 -44 40 -55 36 -9 -4 -14
-13 -11 -20 3 -7 1 -16 -5 -20 -5 -3 -7 -15 -3 -27 3 -12 3 -19 -1 -15 -5 4
-14 3 -21 -3 -17 -14 -44 -4 -44 16 0 23 -17 18 -24 -7 -5 -19 -8 -21 -16 -8
-8 13 -10 12 -10 -2 0 -10 -4 -18 -8 -18 -5 0 -17 -6 -27 -14 -17 -12 -17 -13
8 -18 16 -3 25 -1 24 6 -1 7 16 10 46 9 35 -1 47 2 47 13 0 17 4 17 28 5 62
-35 125 -60 134 -55 5 4 8 16 6 28 -4 18 0 21 21 20 54 -2 53 -2 49 -49 -2
-25 -1 -45 1 -45 9 0 51 52 51 64 0 35 136 82 172 60 7 -5 20 -9 28 -9 8 0 20
-11 27 -25 l13 -25 0 28 c0 16 4 26 10 22 13 -8 13 -26 0 -45 -9 -13 -13 -11
-30 10 -25 33 -28 5 -3 -38 15 -26 15 -34 4 -55 -8 -15 -11 -36 -6 -56 6 -30
6 -31 -27 -27 -18 2 -40 -1 -48 -7 -13 -11 -13 -10 -1 6 12 15 11 17 -8 17
-11 0 -21 -4 -21 -10 0 -5 -11 -10 -24 -10 -13 0 -29 -7 -36 -15 -11 -13 -2
-15 79 -13 50 1 93 -1 96 -4 12 -12 -28 -88 -64 -120 -58 -52 -81 -61 -162
-66 -91 -5 -126 9 -165 68 -21 32 -25 46 -20 75 6 33 9 35 46 36 22 1 45 3 50
4 6 1 31 3 56 4 42 1 45 3 38 24 -4 12 -17 35 -30 50 l-24 29 0 -30 c0 -21 6
-31 20 -35 27 -7 25 -27 -3 -27 -18 0 -27 10 -42 46 l-19 46 -14 -29 c-16 -31
-52 -73 -62 -73 -4 0 -12 10 -17 23 l-11 22 -11 -27 c-10 -28 -19 -32 -53 -29
-27 3 -22 -16 6 -23 19 -5 23 -10 18 -28 -5 -19 -7 -20 -10 -5 -2 9 -12 17
-22 17 -9 0 -23 7 -30 15 -11 13 -10 18 5 29 10 7 15 18 12 23 -10 17 18 34
46 29 18 -3 24 -1 21 8 -3 7 2 19 11 26 26 22 16 30 -20 14 -41 -17 -48 -17
-40 -4 10 16 79 48 93 43 6 -3 12 0 12 6 0 6 -9 11 -19 11 -11 0 -23 5 -26 10
-10 16 -65 12 -65 -5 0 -8 5 -15 11 -15 5 0 7 5 4 10 -3 6 1 10 9 10 8 0 18
-4 21 -10 3 -5 -1 -10 -10 -10 -9 0 -14 -4 -11 -9 4 -5 -3 -7 -13 -4 -11 3
-22 11 -25 19 -11 28 -165 5 -159 -24 2 -6 -4 -9 -12 -6 -8 4 -15 1 -15 -5 0
-6 5 -11 11 -11 5 0 7 -4 4 -10 -3 -5 -13 -10 -21 -10 -9 0 -12 5 -8 12 4 7 3
8 -4 4 -7 -4 -12 -16 -12 -27 0 -23 35 -26 44 -3 3 8 10 12 16 9 5 -3 10 1 10
9 0 14 12 20 33 17 4 0 7 6 7 14 0 14 12 19 33 16 4 0 7 4 7 9 0 18 25 11 38
-10 7 -12 16 -19 21 -16 4 3 8 0 8 -7 0 -7 3 -22 7 -34 5 -17 3 -23 -8 -23
-17 0 -46 -49 -46 -79 0 -31 -12 -55 -20 -41 -5 7 -9 2 -12 -14 -6 -31 5 -33
33 -7 32 29 56 17 53 -27 -1 -20 -3 -45 -3 -55 -1 -10 -12 -22 -26 -27 -45
-17 -24 -40 36 -40 22 0 32 6 39 26 15 38 12 49 -8 31 -25 -23 -32 -21 -32 8
0 14 7 28 15 31 12 5 13 10 5 19 -9 10 -6 16 9 25 17 8 21 8 21 -4 0 -8 11
-23 25 -34 15 -12 23 -26 19 -35 -3 -8 -1 -18 5 -22 6 -3 11 -17 11 -30 0 -22
2 -24 27 -14 19 7 28 7 34 -3 4 -7 23 -11 43 -10 26 2 38 -3 50 -19 14 -21 14
-23 -11 -36 -30 -16 -36 -16 -28 -3 3 6 1 10 -5 10 -7 0 -23 9 -37 20 -31 24
-75 27 -66 5 10 -27 -65 -72 -96 -59 -9 3 -43 8 -76 10 -72 4 -93 22 -68 61
15 22 20 87 12 141 -2 14 -15 30 -31 38 -17 9 -28 23 -28 36 0 21 0 21 -22 2
-13 -10 -18 -12 -11 -5 10 11 6 17 -20 30 -32 16 -39 32 -16 40 7 2 9 -1 5 -8
-4 -6 -1 -11 7 -11 8 0 17 8 19 18 4 13 -2 17 -29 19 -18 1 -33 -1 -34 -5 -8
-64 -8 -102 0 -107 6 -3 8 -12 5 -19 -3 -7 2 -19 11 -26 14 -11 17 -10 22 8 3
15 13 22 29 22 13 0 24 -4 24 -9 0 -6 15 -24 33 -41 26 -26 28 -31 12 -28 -16
3 -22 -5 -31 -41 -10 -39 -10 -47 5 -58 14 -11 14 -12 -4 -8 -16 4 -28 -8 -56
-58 l-37 -62 27 -5 c33 -7 61 31 40 56 -10 12 -9 13 6 8 14 -6 16 -4 10 7 -4
8 -5 11 0 7 4 -4 14 -3 22 4 7 6 17 8 20 4 4 -4 3 -10 -3 -14 -5 -4 -20 -24
-33 -44 -23 -38 -23 -38 -2 -39 28 -2 30 -3 72 -21 65 -29 61 -55 -12 -77 -30
-9 -45 -9 -52 -2 -6 6 -23 11 -39 11 -20 0 -26 -4 -22 -15 4 -9 0 -15 -9 -15
-25 0 -47 11 -41 21 3 5 11 7 17 3 7 -3 1 4 -13 15 -14 11 -35 21 -48 21 -19
0 -22 -4 -17 -20 9 -29 -4 -25 -15 5 -9 24 -30 35 -30 15 0 -5 5 -10 10 -10 6
0 10 -8 10 -17 0 -14 -2 -15 -9 -5 -6 11 -10 10 -15 -4 -4 -9 -2 -22 4 -28 7
-7 10 -6 10 3 0 8 6 11 16 7 10 -4 22 1 29 11 11 15 14 13 28 -18 8 -19 18
-44 22 -56 8 -27 35 -39 35 -15 0 10 -5 23 -11 29 -6 6 -8 16 -5 22 9 13 33
14 40 2 4 -5 -3 -7 -14 -4 -12 3 -20 0 -20 -6 0 -7 4 -10 9 -6 5 3 12 1 16 -5
11 -19 25 -10 25 16 0 21 4 25 23 22 24 -3 25 -24 1 -22 -12 2 -12 -1 -2 -13
8 -10 13 -12 16 -4 3 8 9 5 18 -6 8 -11 13 -13 14 -5 0 6 7 12 15 12 8 0 15 9
15 19 0 11 12 29 26 40 65 51 173 -40 145 -121 -6 -17 -19 -37 -28 -44 -16
-12 -16 -13 -2 -14 22 0 46 29 55 65 4 17 12 36 18 44 8 11 8 15 -2 19 -9 3
-3 13 16 32 17 16 30 38 30 52 0 14 8 38 18 53 21 33 128 105 156 105 10 0 18
7 18 15 0 8 5 15 10 15 6 0 10 6 10 14 0 8 9 18 20 21 23 7 25 16 8 34 -11 11
-10 12 0 6 9 -4 15 0 19 14 3 12 9 21 13 21 5 0 6 -10 2 -22 -3 -14 -2 -19 6
-14 7 4 12 18 12 32 0 16 6 24 18 24 18 0 52 -32 52 -49 0 -12 31 -23 39 -15
3 4 0 9 -6 11 -7 3 -13 9 -13 14 0 6 4 8 8 5 5 -3 10 9 10 27 5 93 14 110 40
83 16 -16 16 -17 0 -10 -10 3 -18 1 -18 -4 0 -10 54 -26 75 -22 6 2 12 2 15 1
3 -1 27 -4 54 -6 59 -6 73 -16 51 -39 -20 -20 -58 -21 -74 -2 -9 11 -21 12
-53 5 -64 -15 -81 -27 -75 -55 2 -14 0 -27 -4 -30 -5 -3 -9 -14 -9 -25 0 -10
-5 -19 -10 -19 -7 0 -8 -13 -5 -33 5 -24 1 -43 -13 -65 -10 -18 -21 -29 -25
-26 -3 3 -3 -4 0 -16 5 -20 7 -19 24 9 10 17 23 31 29 31 6 0 8 10 4 24 -5 23
11 45 24 31 3 -3 0 -10 -8 -15 -13 -8 -12 -11 4 -23 19 -14 18 -16 -16 -51
-19 -20 -40 -36 -46 -36 -6 0 -16 -9 -22 -20 -8 -14 -17 -19 -30 -15 -22 7
-22 -10 3 -45 25 -36 21 -64 -20 -130 -28 -43 -43 -58 -55 -55 -10 3 -26 7
-37 10 -14 4 -20 -1 -25 -20 -4 -14 -10 -24 -15 -21 -9 6 -31 -37 -31 -60 0
-8 -16 -28 -35 -45 -19 -17 -35 -38 -35 -46 0 -11 -7 -14 -26 -9 -19 5 -25 3
-22 -6 5 -15 61 -23 86 -13 14 6 13 9 -8 17 l-25 10 30 13 c17 7 26 14 20 15
-5 1 0 5 12 10 14 6 26 24 33 52 7 24 17 49 22 56 14 16 66 15 115 -2 22 -8
47 -14 54 -14 42 3 70 -3 64 -12 -4 -7 -33 -9 -71 -7 -35 3 -67 1 -69 -3 -5
-8 70 -17 185 -23 35 -1 47 -7 55 -24 13 -30 43 -36 51 -11 3 12 1 24 -6 28
-7 4 -9 13 -6 19 4 6 11 9 16 6 5 -3 14 4 20 15 8 16 8 20 -4 20 -10 0 -13 10
-12 34 1 19 -2 32 -6 30 -5 -3 -8 0 -8 7 0 7 -6 5 -13 -6 -9 -12 -12 -30 -7
-54 4 -21 4 -45 0 -55 -6 -17 -9 -16 -35 8 -16 15 -38 28 -49 31 -12 2 -57 11
-100 20 -44 8 -82 18 -85 21 -3 2 7 16 22 30 15 14 27 20 27 14 0 -13 26 -13
51 1 16 8 18 14 9 24 -9 11 -7 12 9 8 17 -4 21 -1 21 20 l0 26 -26 -24 c-15
-14 -36 -25 -46 -25 -20 0 -19 4 13 50 9 14 21 44 24 65 4 22 11 45 15 50 4 6
10 23 14 38 5 20 18 33 46 46 39 18 43 31 9 31 -11 0 -16 6 -14 17 1 10 -4 28
-12 41 -11 18 -12 27 -3 37 7 8 9 19 5 25 -3 5 -2 10 4 10 6 0 8 7 5 15 -4 9
0 15 7 15 11 0 11 3 -1 10 -10 7 -11 10 -2 11 27 3 31 4 39 13 5 5 2 6 -6 1
-9 -5 -12 -4 -8 3 5 7 18 7 43 -1 l36 -11 -22 -18 c-13 -10 -31 -16 -41 -13
-9 3 -20 1 -24 -5 -3 -5 2 -10 12 -10 10 0 25 -9 33 -19 13 -19 14 -19 26 -3
8 9 14 24 14 33 0 22 47 31 66 12 18 -18 18 -29 -1 -37 -8 -3 -13 -11 -11 -18
1 -7 1 -10 -1 -5 -6 10 -51 9 -57 -2 -5 -7 35 -31 53 -31 12 0 61 74 60 91 0
8 -4 6 -9 -6 -10 -23 -11 -17 -13 65 -2 48 0 55 17 55 25 0 31 -19 11 -38 -10
-11 -12 -18 -4 -23 12 -7 29 12 29 35 0 8 6 11 16 7 13 -5 15 -2 11 16 -6 23
-6 23 9 3 8 -11 13 -27 11 -36 -3 -12 1 -15 14 -12 10 3 16 9 13 14 -7 11 10
11 61 -1 27 -6 44 -5 53 2 10 9 12 8 10 -2 -2 -8 5 -16 16 -18 16 -3 18 1 14
27 -2 17 0 32 6 34 6 2 0 9 -13 16 -19 10 -25 11 -31 1 -5 -8 -18 -10 -34 -6
-16 4 -26 2 -26 -4 0 -16 -83 -6 -88 10 -3 7 0 10 7 6 6 -4 19 -2 28 3 16 9
14 10 -9 11 -15 0 -29 4 -32 9 -7 11 20 22 38 15 18 -7 52 10 88 44 30 28 32
28 42 -5 5 -17 3 -23 -7 -23 -8 0 -20 -7 -28 -16 -11 -14 -9 -15 22 -12 25 2
39 -3 56 -20 24 -26 35 -18 22 16 -5 12 -17 22 -27 22 -26 0 -38 91 -17 124 9
13 15 51 16 96 2 84 -12 124 -58 159 -27 20 -28 21 -9 36 11 8 15 15 8 15 -14
0 -65 -22 -72 -32 -3 -4 -16 -5 -29 -1 -17 4 -19 8 -9 14 10 7 9 9 -4 9 -10 0
-18 6 -18 14 0 8 -5 18 -11 22 -15 9 -1 -56 16 -73 11 -10 14 -10 18 0 3 6 6
2 6 -10 1 -13 -3 -23 -9 -23 -5 0 -10 -7 -10 -16 0 -14 3 -14 15 -4 8 7 15 20
15 28 0 12 3 13 11 5 7 -7 8 -24 4 -42 -6 -30 -7 -30 -35 -16 -30 15 -47 45
-27 45 7 1 1 10 -12 20 -13 11 -28 20 -35 20 -7 0 -7 -3 2 -8 7 -5 12 -22 12
-38 -1 -16 2 -50 6 -75 7 -53 -2 -64 -40 -49 -32 12 -32 10 -2 -25 22 -25 24
-26 31 -9 3 11 29 38 57 62 l50 43 29 -33 c80 -93 95 -138 45 -138 -14 0 -28
-11 -39 -30 -10 -16 -15 -30 -10 -30 4 -1 -8 -14 -26 -30 -21 -18 -38 -26 -41
-20 -10 16 -33 2 -55 -33 -14 -22 -31 -34 -60 -40 -95 -20 -221 14 -267 73
-15 19 -18 34 -14 65 3 22 7 56 9 75 14 143 18 158 50 170 25 8 34 7 49 -7 15
-13 21 -14 31 -4 9 10 9 12 -2 9 -21 -4 -25 28 -5 36 10 4 43 9 75 13 64 6 70
18 12 25 -24 3 -43 -1 -51 -9 -7 -7 -18 -13 -23 -13 -15 0 -10 18 8 28 14 8
13 11 -8 23 -13 7 -27 12 -31 11 -5 -1 -8 6 -8 15 0 15 -2 16 -10 3 -8 -12
-10 -10 -10 9 0 19 4 22 23 18 21 -6 21 -5 3 8 -10 8 -23 12 -29 8 -5 -3 -13
1 -18 8 -6 10 -9 11 -9 2 0 -7 -7 -13 -15 -13 -19 0 -29 53 -29 160 l-1 85 28
0 c18 -1 26 3 23 12 -7 18 14 28 27 13 9 -10 9 -14 0 -17 -7 -3 -13 -8 -13
-12 0 -10 52 -7 70 4 9 5 15 4 18 -3 2 -7 8 -12 13 -12 6 0 8 4 5 9 -3 4 6 6
19 3 23 -4 25 -9 27 -61 0 -31 1 -65 0 -76 -2 -18 -1 -19 9 -2 6 9 12 25 14
35 16 64 31 92 50 92 25 0 58 37 51 56 -3 8 0 14 6 14 7 0 7 4 -1 13 -20 25
-1 25 47 0 50 -27 132 -117 169 -186 15 -29 22 -36 22 -22 1 30 -42 117 -79
158 -34 39 -138 107 -163 107 -11 0 -15 10 -14 39 1 47 -31 90 -109 143 -53
36 -150 65 -180 54 -8 -3 -26 -1 -40 4 -20 8 -25 7 -21 -2z m184 -53 c31 -19
47 -47 35 -60 -7 -6 -82 65 -82 78 0 10 3 9 47 -18z m-60 -17 c-9 -5 -14 -15
-11 -22 7 -17 -14 -32 -27 -19 -12 12 29 66 43 57 7 -4 5 -10 -5 -16z m191
-83 c-7 -8 -48 35 -48 49 0 6 12 -2 27 -16 15 -15 24 -30 21 -33z m-36 -2 c13
-16 25 -44 59 -131 13 -32 6 -38 -48 -46 -138 -20 -160 -20 -173 4 -21 39 -3
88 50 142 51 52 86 61 112 31z m-269 -415 c-3 -6 -12 -3 -20 5 -9 9 -12 20 -8
28 6 9 11 8 21 -6 7 -10 11 -22 7 -27z m-46 -14 c30 -15 67 -39 83 -54 16 -15
32 -25 35 -22 3 3 5 0 5 -7 0 -6 11 -23 24 -36 22 -22 23 -26 10 -40 -9 -8
-24 -16 -35 -16 -20 -2 -37 -5 -41 -8 -2 -2 -31 -5 -65 -8 l-63 -5 0 36 c0 20
-4 35 -9 34 -12 -4 -13 6 -5 37 3 14 1 39 -6 55 -12 28 -8 60 6 60 4 0 31 -12
61 -26z m-104 -6 c2 -7 -3 -19 -12 -26 -9 -8 -10 -11 -3 -7 6 3 12 2 12 -3 0
-19 -33 -22 -52 -5 -19 17 -19 17 -8 -8 8 -18 18 -25 30 -22 10 3 20 -2 24
-12 3 -9 2 -13 -4 -10 -6 3 -10 2 -10 -3 0 -6 7 -12 15 -16 13 -5 20 5 16 27
0 4 4 7 9 7 15 0 12 -21 -7 -42 -19 -21 -73 -25 -73 -4 0 8 -7 17 -16 20 -12
5 -14 15 -10 49 5 38 2 38 -10 -1 -2 -7 -8 -10 -14 -7 -6 4 -4 15 6 30 9 14
20 22 25 19 5 -3 9 2 9 10 0 20 66 23 73 4z m645 -145 c7 -7 11 -17 8 -21 -3
-5 1 -26 9 -48 8 -21 14 -50 14 -64 0 -18 -12 -2 -39 54 -22 43 -37 82 -34 87
6 11 25 8 42 -8z m-608 -28 c0 -18 -4 -22 -20 -18 -11 3 -20 0 -20 -6 0 -5 -7
-8 -16 -4 -13 5 -11 10 12 34 30 31 44 30 44 -6z m135 -365 c3 -5 -2 -10 -12
-10 -17 -1 -17 -1 0 -11 20 -12 23 -35 5 -42 -10 -4 -9 -8 2 -16 8 -5 12 -13
8 -16 -3 -3 -18 4 -32 17 -25 21 -26 26 -15 56 11 31 32 42 44 22z m470 -60
c16 -7 13 -9 -17 -9 -20 -1 -40 4 -43 9 -7 12 32 12 60 0z m-665 -121 c0 -26
-16 -32 -47 -17 -43 21 -40 37 6 36 33 0 41 -4 41 -19z m-160 -106 c-19 -13
-24 -13 -31 -2 -5 8 -9 9 -9 4 0 -6 5 -16 12 -23 9 -9 9 -12 -1 -12 -11 0 -11
-3 -2 -14 10 -12 10 -20 0 -38 -13 -23 -13 -23 -22 12 -15 59 -19 66 -24 53
-3 -7 -11 -13 -19 -13 -8 0 -14 -7 -14 -16 0 -13 3 -14 14 -5 11 9 15 0 20
-49 10 -84 -5 -100 -56 -61 -13 11 -36 23 -50 26 -33 8 -105 82 -113 116 -6
23 -3 27 19 31 15 3 29 1 32 -3 3 -5 23 -9 44 -9 21 0 42 -4 45 -10 3 -6 20
-2 42 10 34 18 37 18 50 2 13 -15 14 -15 9 7 -3 14 0 31 6 38 8 10 16 9 40 -8
l29 -21 -21 -15z m340 -179 c0 -7 -5 -16 -12 -20 -6 -4 -8 -3 -5 3 4 6 0 13
-8 17 -8 3 -12 12 -9 21 5 12 9 13 20 4 8 -6 14 -17 14 -25z"/>
<path d="M1315 2616 c3 -42 12 -56 21 -33 3 8 -1 28 -9 43 l-14 27 2 -37z"/>
<path d="M930 2613 c-32 -4 -80 -42 -80 -63 0 -6 -35 -20 -60 -24 -9 -2 -60
-43 -60 -49 0 -13 46 -1 58 15 17 24 32 23 32 -2 0 -16 7 -20 35 -20 34 0 35
1 29 28 -7 24 -6 26 9 14 9 -8 13 -21 10 -29 -6 -16 7 -15 71 4 12 3 16 1 12
-6 -4 -7 0 -11 12 -11 28 0 34 11 17 30 -12 13 -25 15 -60 10 -46 -7 -64 2
-78 42 -5 14 -3 15 21 2 14 -7 29 -11 32 -7 3 3 -1 8 -7 10 -25 9 -13 28 18
29 17 1 38 9 47 18 18 18 19 18 -58 9z"/>
<path d="M1877 2535 c-4 -8 -13 -15 -21 -15 -7 0 -17 -7 -20 -16 -3 -8 -10
-13 -15 -9 -5 3 -13 0 -17 -6 -10 -17 18 -30 36 -16 13 11 13 10 1 -6 -17 -21
-14 -24 24 -29 24 -2 30 1 30 17 1 11 4 25 8 31 4 7 1 24 -7 38 -10 21 -15 23
-19 11z"/>
<path d="M2012 2523 c-13 -14 -21 -28 -17 -31 3 -4 9 -2 13 4 4 6 15 13 25 17
9 3 17 13 17 22 0 21 -11 17 -38 -12z"/>
<path d="M868 2453 c-22 -5 -24 -23 -3 -23 27 0 15 -17 -12 -18 -16 0 -40 -7
-56 -15 l-27 -14 21 -24 c11 -13 18 -18 14 -11 -4 7 3 21 16 33 26 23 51 25
43 4 -9 -22 14 -18 26 4 12 23 13 58 3 64 -5 2 -16 2 -25 0z"/>
<path d="M1721 2434 c7 -8 5 -17 -7 -28 -9 -10 -14 -20 -10 -23 8 -9 37 18 30
28 -7 12 3 11 26 -1 21 -11 33 0 25 22 -4 9 -20 15 -40 15 -26 0 -32 -3 -24
-13z"/>
<path d="M709 2412 c-5 -13 -9 -31 -9 -40 0 -13 2 -13 13 3 9 11 19 15 27 10
10 -6 12 -4 7 8 -4 11 -2 14 7 11 7 -3 20 1 28 10 8 8 26 16 39 18 13 3 -5 4
-40 4 -57 -1 -64 -3 -72 -24z"/>
<path d="M1660 2369 c0 -6 -9 -8 -20 -4 -14 5 -20 2 -20 -9 0 -18 25 -22 35
-6 4 6 16 8 28 4 19 -6 20 -5 8 10 -15 18 -31 21 -31 5z"/>
<path d="M1708 2345 c-16 -13 -24 -26 -19 -30 5 -3 13 0 16 5 4 6 18 15 32 21
13 5 21 13 18 19 -9 15 -17 12 -47 -15z"/>
<path d="M1813 2335 c-6 -14 -8 -25 -3 -25 4 0 11 7 14 16 8 21 27 8 20 -14
-5 -15 -4 -15 6 1 9 13 8 21 -4 32 -19 19 -19 19 -33 -10z"/>
<path d="M630 2329 c-55 -33 -79 -59 -117 -127 -28 -50 -36 -77 -40 -130 l-4
-67 29 80 c44 123 63 156 112 193 45 35 78 72 63 72 -4 0 -24 -10 -43 -21z"/>
<path d="M2270 2311 c-30 -30 -48 -57 -31 -47 6 4 11 0 11 -9 0 -12 -6 -15
-21 -10 -16 5 -20 3 -17 -6 5 -15 36 -14 52 1 5 5 9 20 9 33 0 17 4 24 13 20
16 -6 31 25 18 36 -5 4 -20 -4 -34 -18z"/>
<path d="M2481 2315 c38 -81 52 -106 56 -101 3 3 2 13 -2 23 -5 10 -7 21 -7
26 1 4 -2 7 -8 7 -5 0 -10 6 -10 14 0 7 -7 20 -17 27 -9 8 -14 10 -12 4z"/>
<path d="M2642 2266 c21 -20 43 -36 50 -36 6 0 9 1 7 3 -2 2 -24 18 -49 36
l-45 33 37 -36z"/>
<path d="M2150 2170 c-21 -41 -29 -90 -10 -60 7 11 10 11 10 2 0 -8 7 -6 20 6
14 13 18 25 14 37 -5 13 -4 16 4 11 7 -4 12 -1 12 8 0 10 6 13 15 10 8 -4 15
-2 15 4 0 11 -23 22 -46 22 -7 0 -23 -18 -34 -40z"/>
<path d="M2245 2192 c4 -8 0 -18 -10 -26 -13 -10 -15 -17 -8 -30 9 -16 11 -14
23 14 10 25 11 33 0 43 -10 9 -11 9 -5 -1z"/>
<path d="M2379 2171 c-20 -18 -22 -22 -9 -31 8 -5 23 -10 33 -10 14 0 17 -5
11 -22 -3 -13 -15 -31 -25 -41 -11 -10 -19 -24 -19 -31 0 -8 -7 -16 -15 -20
-24 -9 -18 18 11 49 22 24 24 30 11 42 -11 12 -19 12 -35 4 -17 -9 -22 -8 -27
9 -3 11 -14 20 -23 20 -15 -1 -16 -2 -1 -13 9 -7 14 -18 11 -25 -2 -7 5 -16
17 -19 32 -8 25 -26 -8 -20 -24 5 -30 2 -34 -15 -4 -15 -3 -18 5 -10 7 7 18 4
35 -12 21 -20 28 -21 57 -12 21 6 32 15 29 23 -3 7 2 16 11 19 9 3 13 11 10
16 -4 6 -2 13 4 17 5 3 11 26 13 51 4 39 1 45 -17 48 -11 2 -32 -6 -45 -17z"/>
<path d="M2005 2141 c-10 -2 -25 -10 -34 -18 -13 -14 -11 -15 20 -8 38 8 34 8
72 6 35 -1 36 -27 2 -43 -14 -6 -25 -18 -25 -26 0 -9 3 -12 7 -9 3 4 12 2 20
-4 10 -9 13 -8 13 4 0 9 9 19 20 22 22 7 26 20 10 30 -5 3 -10 15 -10 26 0 10
-4 20 -10 20 -26 4 -68 4 -85 0z"/>
<path d="M2200 2120 c0 -7 -9 -24 -21 -38 -21 -28 -10 -44 14 -20 18 17 27 57
16 64 -5 3 -9 0 -9 -6z"/>
<path d="M176 2094 c-4 -9 -1 -23 5 -31 10 -11 15 -11 30 3 14 13 16 20 8 31
-15 18 -36 17 -43 -3z"/>
<path d="M2558 2080 c5 -14 27 -58 48 -98 51 -98 57 -168 20 -266 -16 -43 -23
-72 -16 -76 5 -3 10 -38 11 -78 1 -40 6 -69 11 -66 5 3 8 45 6 92 -1 48 4 112
11 142 8 30 14 66 13 80 0 14 5 28 11 32 7 4 6 14 -5 30 -8 13 -20 47 -26 75
-7 32 -26 71 -48 100 -47 62 -47 62 -36 33z"/>
<path d="M795 2080 c-3 -6 2 -13 12 -16 62 -19 65 -23 61 -63 -3 -38 -3 -38
19 -22 17 12 22 26 23 59 0 30 -4 42 -14 42 -8 0 -16 -5 -18 -11 -2 -6 -14 -5
-33 5 -35 19 -42 19 -50 6z"/>
<path d="M48 2069 c-20 -11 -24 -44 -8 -54 16 -10 40 15 40 41 0 26 -6 29 -32
13z"/>
<path d="M2470 2035 c-7 -8 -19 -15 -26 -15 -8 0 -14 -10 -14 -22 l0 -23 19
24 18 23 36 -32 c20 -17 35 -37 34 -43 -1 -7 3 -11 10 -10 7 2 10 -3 7 -10 -2
-7 2 -27 11 -43 8 -16 15 -24 16 -19 1 6 5 -3 9 -20 l8 -30 1 27 c1 37 -26
103 -67 161 -37 51 -43 55 -62 32z"/>
<path d="M973 1975 c6 -36 29 -64 55 -65 10 0 10 5 2 20 -6 11 -15 18 -20 15
-11 -7 -33 32 -25 45 3 5 0 12 -6 16 -9 5 -10 -3 -6 -31z"/>
<path d="M2136 1981 c-3 -5 3 -11 14 -14 11 -3 22 -1 25 3 3 4 14 6 25 3 11
-3 20 0 20 6 0 13 -76 15 -84 2z"/>
<path d="M1488 1968 c-50 -13 -50 -32 0 -23 35 6 42 3 76 -32 39 -38 35 -17
-3 24 -12 12 -21 27 -21 33 0 12 -2 11 -52 -2z"/>
<path d="M860 1930 c0 -20 53 -32 100 -22 l45 10 -52 1 c-29 0 -53 6 -53 11 0
6 -9 10 -20 10 -11 0 -20 -5 -20 -10z"/>
<path d="M134 1917 c-3 -9 -4 -24 -2 -34 3 -16 5 -15 17 6 9 16 10 26 2 34 -7
7 -12 6 -17 -6z"/>
<path d="M780 1890 c-6 -11 -17 -20 -25 -20 -12 0 -14 -9 -10 -42 3 -23 11
-46 18 -50 8 -6 5 -8 -8 -6 -11 2 -25 12 -32 23 -15 26 -33 26 -55 0 -10 -11
-17 -15 -18 -7 0 6 5 12 10 12 6 0 10 5 10 11 0 17 -18 1 -51 -47 -36 -52 -32
-68 6 -30 27 27 41 34 29 15 -4 -7 2 -9 17 -7 18 2 24 10 25 31 1 15 4 31 8
35 5 4 7 0 5 -8 -3 -17 11 -52 23 -61 5 -3 -2 -13 -16 -22 -21 -14 -24 -21
-16 -47 5 -19 5 -28 -1 -25 -5 4 -9 5 -9 3 0 -2 -4 -18 -9 -36 -10 -34 4 -47
16 -14 10 25 35 41 66 42 31 0 37 -19 7 -27 -25 -7 -25 -15 0 -33 18 -13 18
-16 4 -38 -15 -23 -15 -23 5 -12 12 6 21 15 21 20 0 6 7 10 15 10 18 0 19 12
3 28 -9 9 -9 15 0 24 9 9 15 9 24 0 7 -7 19 -12 29 -12 12 0 15 -6 11 -25 -5
-27 -39 -58 -54 -49 -4 3 -8 -2 -8 -11 0 -21 -44 -37 -72 -26 -28 11 -54 39
-61 66 -3 11 -3 -12 0 -50 5 -67 -8 -165 -26 -194 -7 -11 -13 -10 -34 5 -28
21 -86 101 -104 146 -24 55 -9 157 26 184 21 16 22 44 3 44 -13 0 -11 5 8 20
14 11 20 20 14 20 -6 0 -14 -3 -18 -7 -4 -5 -13 -8 -19 -8 -13 -1 -13 -9 -1
-39 5 -14 4 -17 -5 -12 -7 5 -28 0 -47 -10 -29 -16 -36 -17 -43 -5 -6 8 -16
11 -27 7 -10 -4 -21 -1 -25 6 -5 8 -7 0 -5 -19 3 -23 1 -30 -9 -27 -8 3 -12
-2 -12 -13 1 -10 -4 -17 -10 -15 -18 3 -16 -17 2 -24 8 -4 15 -14 15 -23 0
-14 -2 -14 -10 -1 -7 11 -10 7 -10 -18 0 -20 4 -31 10 -27 6 4 8 11 5 16 -14
21 45 8 60 -14 12 -19 57 -135 55 -144 -2 -16 2 -23 9 -18 6 3 8 14 6 25 -2
11 1 20 7 20 7 0 8 -13 5 -35 -5 -28 0 -44 19 -72 13 -20 24 -45 24 -57 1 -18
51 -86 65 -86 12 0 3 20 -20 48 -14 17 -25 41 -25 55 0 14 -7 33 -16 41 -8 9
-12 16 -8 16 3 0 1 7 -6 15 -21 25 -4 17 29 -14 17 -16 31 -34 31 -40 0 -14
20 -50 42 -76 10 -12 19 -32 21 -45 9 -55 101 -24 179 60 51 55 59 60 78 50
20 -11 20 -12 4 -24 -15 -12 -15 -13 0 -19 11 -4 16 -19 16 -44 1 -36 29 -106
29 -73 1 8 -3 22 -9 30 -6 10 -2 19 17 31 14 10 31 15 37 13 17 -6 58 73 51
97 -4 11 -4 38 0 59 5 30 14 44 41 61 19 11 32 25 28 30 -3 5 -9 7 -14 4 -5
-3 -12 0 -16 6 -4 8 -11 4 -20 -12 -8 -15 -13 -18 -14 -9 0 11 -2 12 -8 3 -5
-7 -21 -14 -38 -14 -39 -2 -108 -21 -115 -32 -3 -4 -12 -10 -20 -11 -8 -2 -23
-7 -33 -11 -21 -9 -46 16 -46 45 0 9 -4 20 -9 26 -6 5 -12 24 -16 42 -4 23 -2
32 9 32 7 0 20 10 29 23 8 12 25 23 38 24 12 1 27 9 31 18 5 8 22 15 38 15 16
0 32 5 35 10 4 6 16 8 27 4 16 -5 19 -2 16 13 -2 10 -8 16 -13 15 -6 -2 -20
18 -31 45 -16 37 -19 53 -11 70 6 13 14 23 19 23 4 0 8 7 8 15 0 12 4 13 19 6
18 -10 31 -6 31 11 0 5 -4 7 -9 4 -4 -3 -17 4 -27 16 -19 21 -19 21 8 15 14
-4 32 -9 40 -12 7 -2 24 4 37 14 l24 19 -33 7 c-19 4 -34 15 -37 26 -6 22 -14
24 -32 7 -10 -11 -11 -9 -6 7 6 20 6 20 -4 0 -43 -90 -80 -193 -75 -212 5 -19
2 -23 -15 -23 -14 0 -20 4 -15 12 4 7 3 8 -5 4 -6 -4 -18 -2 -26 4 -8 6 -19 9
-25 5 -5 -3 -10 -1 -10 4 0 6 -13 11 -30 11 -16 0 -30 5 -30 10 0 6 -7 10 -17
10 -14 0 -15 2 -1 18 9 9 13 23 11 30 -3 6 3 12 11 12 25 0 30 27 11 56 -16
25 -16 27 4 45 21 20 21 20 21 -1 0 -11 4 -20 9 -20 13 0 21 42 11 55 -6 7 -7
15 -3 18 3 4 -1 7 -10 7 -9 0 -21 -9 -27 -20z m-314 -357 c1 -24 -1 -43 -5
-43 -3 0 -16 16 -29 35 -12 19 -26 35 -31 35 -5 0 -4 16 2 35 l11 36 25 -28
c19 -20 26 -39 27 -70z m477 83 c3 -8 3 -23 0 -35 -5 -20 -5 -20 -23 2 -13 16
-15 26 -8 35 14 16 25 15 31 -2z m-182 -202 c9 -11 8 -14 -2 -14 -8 0 0 -9 16
-20 17 -11 24 -20 18 -20 -7 0 -12 -5 -10 -12 1 -6 -13 -15 -32 -19 -37 -8
-61 -3 -61 13 0 5 6 6 13 2 9 -5 9 -4 0 6 -8 9 -9 19 -2 31 5 10 9 22 8 26 -5
33 27 37 52 7z m267 -77 c14 -17 20 -92 7 -92 -5 0 -16 -4 -24 -9 -11 -7 -11
-10 3 -18 25 -14 20 -40 -6 -36 -26 3 -72 82 -64 111 2 9 -1 17 -6 17 -6 0 -3
9 7 20 20 23 67 27 83 7z m-181 -40 c28 -11 30 -14 20 -34 -17 -30 -116 -133
-128 -133 -6 0 -35 23 -64 51 -70 67 -69 84 10 109 69 22 116 24 162 7z"/>
<path d="M1930 1867 c0 -4 7 -24 15 -44 8 -19 15 -45 15 -56 0 -21 0 -21 -16
-1 -15 18 -15 18 -9 -4 4 -13 1 -29 -5 -37 -10 -12 -9 -15 3 -15 34 0 47 12
47 45 0 63 84 96 153 61 15 -8 27 -11 27 -5 0 5 -4 9 -10 9 -5 0 -10 5 -10 11
0 5 4 8 9 5 5 -4 7 3 4 14 -5 19 -23 29 -23 12 0 -4 -21 -7 -46 -8 -26 0 -49
-6 -53 -13 -5 -7 -12 -13 -17 -13 -5 0 -14 -3 -21 -5 -7 -3 -24 8 -37 24 -14
15 -26 24 -26 20z"/>
<path d="M577 1824 c-3 -3 -3 -12 0 -20 4 -10 0 -13 -13 -8 -11 3 -15 2 -8 -3
6 -4 14 -17 18 -28 6 -16 9 -17 16 -5 6 8 10 23 10 33 0 10 10 22 23 27 20 8
20 9 -9 9 -17 1 -33 -2 -37 -5z"/>
<path d="M886 1821 c-9 -14 5 -42 18 -38 18 6 20 47 2 47 -8 0 -17 -4 -20 -9z"/>
<path d="M1141 1790 c-18 -10 -43 -28 -55 -39 -28 -27 -45 -27 -21 -1 15 17
16 20 3 20 -9 0 -22 -10 -30 -22 -17 -29 -12 -72 8 -64 9 3 12 1 9 -4 -3 -6
-2 -10 4 -10 20 0 21 20 2 32 -18 11 -17 13 20 29 21 10 39 23 39 28 0 6 7 7
17 4 11 -4 14 -3 9 5 -4 7 -3 12 1 12 5 0 18 7 29 15 27 20 5 17 -35 -5z"/>
<path d="M2038 1786 c-20 -19 -12 -59 14 -75 19 -12 20 -11 16 6 -3 10 1 24 8
31 16 14 58 16 49 2 -3 -5 -15 -10 -26 -10 -23 0 -24 -9 -1 -37 22 -27 53 -33
69 -13 11 13 12 13 13 -2 0 -10 7 -18 15 -18 11 0 13 5 8 15 -16 28 -95 105
-108 105 -7 0 -20 3 -28 6 -8 3 -21 -2 -29 -10z"/>
<path d="M1170 1750 c11 -7 7 -10 -15 -16 -26 -6 -67 -34 -50 -34 10 0 83 39
89 48 2 4 -5 9 -17 9 -17 2 -18 0 -7 -7z"/>
<path d="M1670 1750 c0 -5 5 -10 11 -10 7 0 17 -6 23 -14 10 -13 13 -13 24 0
11 12 9 14 -8 14 -11 0 -20 5 -20 10 0 6 -7 10 -15 10 -8 0 -15 -4 -15 -10z"/>
<path d="M843 1743 c-35 -5 -43 -17 -17 -27 26 -10 39 -7 52 14 7 11 9 19 5
18 -5 0 -23 -3 -40 -5z"/>
<path d="M1799 1743 c-1 -5 -1 -12 0 -16 1 -5 -8 -11 -19 -14 -11 -3 -20 -9
-20 -14 0 -5 -7 -9 -15 -9 -8 0 -15 -8 -15 -17 0 -12 3 -14 8 -6 4 6 21 14 37
17 29 5 70 36 47 36 -6 0 -9 7 -6 15 4 8 1 15 -5 15 -6 0 -12 -3 -12 -7z"/>
<path d="M629 1713 c-11 -2 -16 -13 -15 -29 1 -22 2 -23 14 -7 10 15 12 15 12
1 0 -9 7 -19 16 -22 26 -10 34 -7 27 10 -3 8 -12 13 -19 10 -11 -4 -13 1 -8
19 6 25 4 27 -27 18z"/>
<path d="M357 1704 c-11 -11 -8 -44 4 -44 6 0 9 7 6 14 -4 11 -1 13 10 9 10
-4 14 -2 11 7 -5 16 -21 23 -31 14z"/>
<path d="M1962 1676 c-12 -6 -25 -19 -28 -29 -7 -22 13 -48 32 -40 27 10 63
-7 84 -42 12 -19 28 -35 36 -35 21 0 18 7 -36 76 -28 35 -45 64 -38 64 9 0 8
3 -2 10 -17 11 -18 11 -48 -4z"/>
<path d="M994 1655 c11 -8 28 -15 37 -15 10 0 21 -5 25 -11 4 -8 9 -8 17 0 8
8 5 15 -9 25 -10 8 -20 11 -22 6 -2 -5 -14 -5 -28 1 -35 13 -42 11 -20 -6z"/>
<path d="M2080 1638 c11 -18 32 -48 48 -67 25 -30 31 -32 50 -22 25 13 44 71
30 86 -7 7 -14 5 -20 -6 -10 -14 -17 -13 -66 13 -31 15 -57 28 -58 28 -2 0 5
-15 16 -32z"/>
<path d="M324 1616 c-6 -6 -14 -25 -18 -41 -6 -24 -5 -27 7 -16 14 11 32 60
25 66 -2 2 -8 -2 -14 -9z"/>
<path d="M2527 1603 c-8 -7 11 -33 24 -33 5 0 9 9 9 20 0 19 -20 27 -33 13z"/>
<path d="M2675 1523 c3 -21 9 -49 11 -63 l5 -25 -16 25 -16 25 5 -25 c2 -14
12 -59 21 -100 11 -49 15 -102 13 -152 -3 -43 -1 -78 2 -78 18 0 19 37 6 210
-4 49 -3 68 3 55 9 -18 10 -17 10 9 1 22 -2 27 -15 22 -13 -5 -14 -4 -6 7 6 7
9 22 7 33 -2 10 -7 36 -10 57 -3 20 -11 37 -17 37 -6 0 -8 -13 -3 -37z"/>
<path d="M920 1522 c0 -10 12 -29 26 -41 22 -19 27 -20 37 -8 7 8 25 18 41 21
28 7 28 8 12 24 -16 16 -19 15 -43 -13 -23 -27 -24 -28 -18 -6 5 16 4 21 -4
17 -6 -4 -14 0 -17 8 -8 22 -34 20 -34 -2z"/>
<path d="M1063 1503 c1 -16 7 -27 12 -25 6 1 10 7 9 12 -1 6 -2 17 -2 25 -3
28 -21 15 -19 -12z"/>
<path d="M2 1490 c2 -19 11 -24 43 -27 21 -2 41 -6 43 -8 3 -2 13 0 23 6 22
11 111 -14 130 -37 7 -8 21 -11 34 -8 21 5 27 -1 49 -49 22 -45 25 -60 16 -82
-6 -17 -16 -25 -24 -22 -10 4 -12 0 -8 -15 4 -16 1 -19 -19 -16 -16 2 -25 11
-27 25 -2 12 -10 24 -18 27 -16 6 -30 -17 -20 -33 9 -14 -14 -25 -27 -12 -8 8
-8 14 0 22 15 15 5 39 -13 32 -8 -3 -14 -9 -14 -15 0 -5 6 -6 13 -2 8 5 8 2
-2 -9 -18 -23 -34 -21 -26 3 4 12 0 26 -9 36 -9 9 -13 21 -9 27 4 7 0 8 -13 3
-10 -5 -24 -9 -31 -9 -6 0 -11 -12 -10 -26 2 -33 -27 -36 -31 -3 -2 12 -8 22
-13 22 -6 0 -8 -4 -4 -9 3 -5 1 -12 -5 -16 -5 -3 -10 2 -10 11 0 27 -13 7 -15
-21 -1 -27 14 -32 33 -13 9 9 12 8 12 -4 0 -9 6 -19 13 -21 7 -3 5 -6 -5 -6
-10 -1 -18 -6 -18 -11 0 -7 -6 -7 -20 0 -25 13 -26 2 -3 -16 17 -13 17 -13 0
-14 -28 0 -14 -24 18 -30 34 -6 55 -34 38 -51 -8 -8 -17 -5 -32 10 -22 22 -41
20 -41 -4 0 -8 8 -12 20 -10 12 2 26 -6 38 -22 11 -15 24 -23 30 -19 17 11 15
26 -3 20 -11 -5 -13 -2 -9 11 5 11 15 15 31 12 13 -2 26 0 29 5 3 5 18 9 32 8
33 -2 72 9 72 21 0 5 7 9 15 9 8 0 15 -7 15 -15 0 -8 -4 -15 -10 -15 -5 0 -10
-6 -10 -14 0 -11 -11 -14 -45 -10 -29 3 -45 0 -45 -7 0 -6 -6 -9 -14 -6 -18 7
-36 -12 -36 -36 0 -15 -5 -18 -25 -14 -15 2 -24 0 -22 -6 6 -20 45 -14 58 10
13 24 29 31 29 13 0 -5 -5 -10 -11 -10 -5 0 -7 -5 -4 -11 4 -6 13 -8 21 -5 8
3 14 2 14 -3 0 -5 11 -12 25 -15 14 -4 25 -13 25 -21 0 -11 -5 -12 -25 -5 -14
5 -25 7 -25 4 0 -4 -7 -1 -15 6 -9 7 -30 13 -47 12 -17 0 -40 4 -51 10 -17 9
-19 7 -15 -8 3 -11 7 -25 9 -33 2 -7 -2 -16 -9 -18 -6 -3 -12 2 -12 11 0 9 -7
16 -15 16 -8 0 -15 -4 -15 -10 0 -5 5 -10 10 -10 6 0 10 -7 10 -16 0 -9 -5
-12 -12 -8 -9 5 -9 2 1 -9 9 -11 10 -17 2 -17 -18 0 -13 -38 7 -49 16 -10 16
-12 -2 -26 -16 -12 -17 -17 -6 -30 11 -14 11 -18 0 -25 -8 -5 -10 -15 -6 -26
7 -18 8 -18 20 -1 7 9 22 17 33 17 13 0 23 9 27 23 9 36 7 38 -19 21 -23 -15
-25 -15 -25 0 0 9 5 16 10 16 6 0 10 7 10 15 0 9 6 12 15 9 9 -4 18 1 21 10 8
21 -4 35 -15 17 -7 -10 -13 -11 -30 -2 -16 9 -21 9 -21 -1 0 -9 -3 -9 -12 0
-19 19 6 40 27 22 10 -8 15 -9 15 -1 0 6 3 10 8 10 4 -1 14 -1 22 0 12 1 12 4
-2 12 -23 13 -23 24 4 48 24 23 35 20 49 -16 12 -32 3 -63 -18 -63 -10 0 -13
-6 -9 -16 3 -9 6 -18 6 -20 0 -3 5 -2 11 2 6 3 15 0 20 -7 8 -11 12 -10 24 5
8 11 15 26 15 34 0 25 23 6 35 -29 13 -36 37 -46 43 -16 2 10 -2 16 -9 15 -19
-4 -23 38 -6 45 11 4 13 0 10 -14 -4 -15 -2 -18 11 -13 12 5 16 0 16 -20 0
-31 37 -77 56 -69 8 3 14 14 14 24 0 10 5 19 10 19 6 0 10 7 10 15 0 8 -4 15
-10 15 -5 0 -10 -4 -10 -10 0 -5 -13 -8 -30 -7 -16 1 -30 5 -30 9 0 9 57 28
64 21 3 -4 6 3 6 15 0 13 6 22 15 22 8 0 15 6 16 13 3 32 0 64 -6 79 -5 13 0
20 18 27 16 6 27 20 32 40 6 26 9 29 25 21 11 -6 22 -26 26 -45 3 -19 11 -35
18 -35 8 0 7 -3 -1 -8 -7 -4 -10 -16 -8 -27 2 -11 4 -27 5 -35 0 -12 3 -11 11
3 14 25 23 21 37 -15 10 -28 9 -36 -9 -67 -19 -31 -26 -58 -28 -99 -1 -7 -43
-55 -95 -107 -74 -75 -101 -95 -131 -101 -21 -4 -54 -17 -73 -30 -19 -13 -44
-24 -56 -25 -12 0 -52 -1 -90 -2 -48 -1 -71 -6 -74 -16 -3 -10 4 -12 37 -6 26
4 41 3 41 -3 0 -6 14 -9 32 -6 18 3 48 6 66 8 18 2 38 8 45 15 6 6 17 11 24
11 8 0 25 7 38 16 15 10 25 12 25 5 0 -6 5 -11 10 -11 6 0 10 7 10 15 0 8 5
15 10 15 12 0 26 11 76 58 18 18 34 37 34 42 0 6 5 10 10 10 19 0 79 73 85
104 21 104 42 117 104 65 78 -66 91 -79 91 -96 0 -13 2 -15 8 -5 8 12 40 7 52
-8 3 -3 22 -14 43 -23 20 -10 37 -25 37 -33 0 -8 5 -12 11 -9 6 4 13 -3 16
-15 4 -14 11 -19 21 -15 8 3 25 -3 36 -13 12 -11 36 -27 53 -36 18 -9 47 -23
63 -32 17 -8 35 -12 41 -8 6 3 15 0 20 -7 6 -11 11 -11 20 -2 8 8 19 9 38 1
52 -21 76 -33 84 -43 5 -5 5 0 2 13 -5 17 -2 22 14 22 11 0 23 -5 26 -10 4 -6
11 -8 16 -4 5 3 16 0 24 -6 8 -7 15 -9 15 -5 0 4 7 2 15 -5 11 -9 15 -9 15 -1
0 7 5 9 13 4 6 -4 32 -9 57 -10 25 -1 60 -4 78 -6 18 -2 30 -2 27 1 -3 4 21
12 54 18 33 7 75 19 93 28 34 16 63 23 132 32 22 3 47 9 57 15 10 5 25 9 35 9
27 0 147 62 171 88 13 15 27 21 35 16 7 -4 10 -4 6 0 -4 5 -1 14 5 22 57 67
124 124 170 145 15 7 27 16 27 21 0 5 11 19 25 32 13 13 23 25 20 28 -3 2 6
15 20 28 14 13 25 32 25 41 0 12 5 16 14 13 8 -3 13 1 12 13 -2 36 37 150 85
248 49 99 74 181 59 190 -4 2 -10 -14 -14 -36 -8 -53 -44 -122 -97 -189 -23
-29 -35 -50 -26 -47 20 7 21 3 7 -21 -5 -9 -21 -47 -34 -83 -13 -37 -36 -85
-49 -107 -26 -39 -91 -98 -135 -121 -13 -7 -21 -15 -18 -18 3 -3 -8 -16 -24
-28 -16 -12 -48 -43 -70 -68 -74 -84 -158 -123 -395 -182 -38 -10 -92 -24
-120 -32 -27 -8 -72 -15 -100 -16 -56 -1 -194 11 -207 19 -7 5 -155 22 -215
26 -7 1 -13 5 -13 10 0 5 -10 6 -21 3 -16 -5 -19 -4 -14 6 6 9 3 11 -8 6 -10
-3 -17 -2 -17 3 0 6 -3 9 -7 8 -18 -3 -70 26 -127 71 -34 27 -98 67 -143 89
-45 23 -84 46 -88 52 -8 14 18 13 32 -1 9 -9 11 -7 6 9 -4 16 -11 20 -36 16
-28 -4 -36 1 -65 41 -18 25 -49 76 -68 113 -19 37 -51 83 -69 102 -38 39 -75
49 -76 22 0 -11 -4 -9 -11 8 l-10 25 -11 -22 c-5 -13 -14 -23 -18 -23 -5 0 -6
-7 -2 -16 4 -12 2 -15 -8 -12 -8 3 -13 12 -13 21 1 9 -4 13 -12 10 -8 -3 -14
0 -14 6 0 6 6 11 13 11 46 2 74 77 51 142 -7 22 -19 70 -25 106 -13 76 -27 92
-80 92 -28 0 -45 7 -64 26 -23 23 -31 25 -78 20 -73 -8 -79 -8 -110 0 -26 6
-28 4 -25 -16z m138 -225 c0 -8 -9 -15 -20 -15 -20 0 -26 11 -13 23 12 13 33
7 33 -8z m222 -1 c8 -7 -21 -64 -33 -64 -12 0 -11 12 1 44 9 25 21 32 32 20z
m-252 -45 c0 -5 5 -7 12 -3 29 18 136 -5 123 -26 -9 -14 -55 -8 -55 7 0 7 -9
13 -20 13 -11 0 -19 -6 -17 -12 2 -15 -30 -18 -55 -6 -22 11 -24 38 -3 38 8 0
15 -5 15 -11z m189 -13 c10 -12 8 -17 -8 -25 -11 -6 -22 -11 -24 -11 -4 0 -2
40 2 48 3 7 20 0 30 -12z m45 -39 c16 -12 16 -14 -9 -25 -31 -14 -43 -9 -27
11 7 8 9 17 5 20 -12 12 13 7 31 -6z m-134 -11 c0 -10 -17 -13 -59 -12 -42 0
-57 4 -50 12 13 16 109 16 109 0z m92 -52 c-2 -10 -10 -23 -17 -29 -8 -6 -10
-17 -5 -30 5 -11 9 -14 9 -7 1 7 8 20 16 29 13 12 20 13 45 1 17 -7 30 -18 30
-25 0 -21 -16 -22 -33 -2 -18 20 -37 25 -37 10 0 -9 17 -24 30 -27 3 0 15 -5
27 -10 17 -7 20 -13 12 -24 -7 -10 -12 -11 -15 -3 -4 8 -15 9 -37 2 -20 -6
-33 -5 -35 0 -2 6 -11 7 -20 4 -15 -6 -16 -5 -2 12 14 17 13 18 -12 12 -21 -6
-33 -2 -48 13 -11 11 -22 20 -25 20 -3 0 -9 0 -13 0 -4 0 -8 9 -9 19 -2 20 33
36 43 20 3 -5 0 -9 -5 -9 -6 0 -11 -4 -11 -10 0 -5 9 -10 20 -10 11 0 20 -6
20 -14 0 -8 4 -18 10 -21 6 -4 7 6 3 26 -4 23 -3 30 5 25 8 -4 12 0 12 11 0
22 20 45 35 40 5 -2 8 -12 7 -23z m-36 -125 c3 -6 2 -14 -3 -18 -6 -3 -15 -16
-22 -29 -7 -12 -16 -20 -22 -17 -15 10 -10 25 9 25 14 0 14 2 3 9 -12 8 -12
12 -2 25 16 19 27 20 37 5z m-75 -9 c17 0 9 -20 -8 -21 -16 0 -16 -1 1 -8 13
-5 16 -10 9 -14 -7 -4 -19 3 -27 15 -20 29 -20 42 0 34 9 -3 20 -6 25 -6z
m137 -27 c3 -18 -2 -23 -17 -23 -21 0 -45 32 -34 44 15 15 48 0 51 -21z"/>
<path d="M1034 1476 c-3 -9 -10 -14 -14 -11 -5 3 -16 -5 -25 -17 -13 -20 -17
-21 -25 -8 -8 12 -10 12 -10 -5 0 -15 7 -21 28 -22 24 -2 31 4 45 35 9 20 14
38 12 40 -3 3 -7 -3 -11 -12z"/>
<path d="M854 1468 c-12 -5 -26 -20 -32 -33 -9 -20 -7 -26 11 -37 46 -30 57
-29 90 3 l31 32 -28 23 c-30 26 -40 28 -72 12z"/>
<path d="M1089 1463 c-17 -4 -45 -53 -31 -53 12 0 52 39 52 50 0 6 -1 9 -2 9
-2 -1 -10 -3 -19 -6z"/>
<path d="M1120 1440 c-13 -9 -13 -11 0 -20 19 -12 35 -8 35 10 0 18 -16 22
-35 10z"/>
<path d="M2378 1416 c3 -5 -5 -7 -16 -4 -29 8 -29 -10 0 -21 29 -11 68 -2 62
14 -3 7 3 15 13 18 10 3 -1 4 -24 4 -22 -1 -39 -6 -35 -11z"/>
<path d="M2438 1376 c-22 -16 -24 -46 -3 -46 28 0 30 1 28 21 -2 11 3 19 13
19 8 0 12 5 9 10 -8 14 -26 12 -47 -4z"/>
<path d="M2347 1344 c-3 -4 12 -24 34 -45 31 -30 36 -39 22 -39 -10 0 -36 18
-57 40 -21 22 -43 37 -49 33 -6 -4 -1 -14 12 -25 13 -10 19 -18 15 -18 -5 0
-20 9 -34 20 -26 21 -76 28 -65 10 4 -6 2 -17 -5 -25 -13 -16 1 -28 23 -19 9
3 21 -4 31 -17 18 -27 19 -26 -21 -33 -25 -5 -32 -2 -36 13 -4 16 -13 20 -47
19 -25 0 -44 -6 -47 -14 -4 -11 -9 -11 -27 1 -19 13 -25 13 -44 -1 -12 -8 -22
-18 -22 -22 0 -4 37 -6 82 -4 101 4 156 -12 178 -51 14 -25 13 -30 -5 -65 -40
-74 -195 -122 -239 -73 -10 11 -15 24 -12 30 4 6 -10 13 -31 17 -21 4 -43 11
-50 16 -7 5 -14 5 -17 -1 -4 -5 1 -14 9 -19 13 -6 14 -14 6 -35 -9 -24 -9 -25
12 -18 14 6 21 15 19 27 -3 15 -1 16 12 5 9 -8 16 -20 16 -28 0 -10 6 -12 20
-8 15 5 18 3 14 -9 -3 -9 -10 -16 -14 -16 -5 0 -15 -13 -24 -30 -13 -27 -6
-44 9 -20 3 6 15 10 26 10 10 0 19 7 19 15 0 9 9 15 23 15 39 1 170 39 189 57
10 9 18 26 18 38 0 12 9 30 20 40 25 23 25 36 -1 69 -15 20 -17 26 -6 26 8 0
22 10 31 23 14 18 25 22 52 19 19 -2 41 1 49 8 17 14 21 35 5 25 -5 -3 -10 3
-10 14 0 12 -6 21 -14 21 -8 0 -16 7 -20 15 -5 15 -37 21 -49 9z m-55 -51 c10
-9 18 -20 18 -25 0 -13 -20 -9 -36 6 -15 15 -19 36 -7 36 3 0 15 -7 25 -17z"/>
<path d="M1294 1323 c-16 -12 -14 -13 16 -7 43 8 64 25 28 22 -15 -1 -35 -8
-44 -15z"/>
<path d="M1998 1326 c-23 -17 -23 -21 4 -46 12 -11 16 -20 10 -20 -7 0 -12 -7
-12 -15 0 -20 13 -19 34 4 17 19 17 20 -4 31 -17 9 -19 14 -9 26 17 21 -1 36
-23 20z"/>
<path d="M2160 1300 c-10 -19 -9 -21 12 -18 13 2 23 9 23 17 0 23 -23 24 -35
1z"/>
<path d="M2728 1315 c-3 -3 -1 -31 4 -63 5 -31 7 -69 4 -84 -4 -18 0 -28 11
-32 24 -10 37 8 23 33 -6 12 -9 27 -7 34 2 7 14 -6 26 -28 23 -41 23 -36 1 26
-9 26 -18 35 -29 32 -14 -3 -16 3 -13 35 3 35 -7 60 -20 47z"/>
<path d="M1780 1260 c0 -5 -11 -10 -24 -10 -14 0 -40 -9 -59 -20 -19 -11 -42
-18 -51 -14 -9 3 -16 1 -16 -5 0 -6 6 -11 13 -11 6 0 38 -18 71 -40 67 -46 88
-49 111 -18 14 21 14 23 -2 30 -10 3 -34 8 -53 9 l-35 2 35 6 35 6 -32 14
c-18 7 -33 18 -33 23 0 12 38 0 72 -23 26 -19 26 -19 21 1 -3 13 0 20 8 20 8
0 -1 9 -19 20 -37 23 -42 24 -42 10z"/>
<path d="M1582 1155 c-14 -30 -15 -55 -3 -73 6 -11 22 -11 89 0 45 7 82 16 82
21 0 5 -6 7 -13 4 -19 -7 -88 25 -111 52 -24 27 -30 27 -44 -4z"/>
<path d="M2068 1167 c-7 -8 -18 -12 -24 -10 -19 6 -64 -16 -64 -31 0 -18 44
-7 97 24 44 26 54 18 22 -17 l-24 -26 25 16 c13 10 44 17 68 17 24 0 52 5 63
10 17 10 19 7 19 -21 0 -27 2 -30 15 -19 18 15 19 34 3 47 -22 18 -185 25
-200 10z"/>
<path d="M566 1091 c-21 -23 -20 -31 5 -31 11 0 29 -4 39 -10 14 -7 20 -6 24
7 4 9 5 17 4 17 -2 1 -15 9 -29 19 -25 15 -28 15 -43 -2z"/>
<path d="M803 1076 c6 -39 0 -56 -20 -56 -9 0 -14 8 -13 23 3 36 1 38 -28 23
-30 -15 -48 -16 -69 -3 -7 5 -13 6 -13 3 0 -2 -3 -13 -6 -23 -5 -14 -4 -15 5
-7 23 21 48 6 43 -26 -4 -26 -6 -28 -19 -14 -9 8 -18 12 -21 9 -4 -3 0 -10 8
-15 8 -6 11 -10 7 -10 -4 0 -19 7 -32 16 -33 22 -33 3 2 -42 21 -29 31 -34 51
-29 26 6 26 1 6 -62 -4 -13 1 -10 18 9 25 28 64 41 62 21 -1 -7 -2 -20 -2 -28
-1 -8 -9 -15 -17 -15 -8 0 -15 -4 -15 -9 0 -11 29 -23 40 -16 28 17 14 113
-15 101 -21 -8 -45 3 -45 20 0 8 9 14 20 14 11 0 20 -5 20 -12 0 -6 3 -8 7 -5
3 4 12 2 20 -5 12 -10 12 -7 2 15 -9 19 -20 27 -38 27 -29 -1 -61 -21 -61 -39
0 -16 -17 -14 -24 4 -4 11 3 19 19 25 17 7 25 17 25 34 0 29 15 43 24 21 3 -8
1 -15 -4 -15 -6 0 -10 -4 -10 -8 0 -5 13 -7 29 -4 36 5 92 59 73 71 -7 4 -10
14 -7 23 4 9 0 15 -11 15 -12 0 -15 -7 -11 -31z"/>
<path d="M0 1063 c0 -25 5 -43 11 -43 6 0 9 6 6 14 -3 8 1 20 9 26 16 14 19
34 3 24 -6 -3 -15 0 -20 7 -6 9 -9 0 -9 -28z"/>
<path d="M872 1093 c-13 -3 -21 -10 -19 -17 3 -6 -1 -20 -9 -31 -16 -22 -18
-45 -4 -45 5 0 7 6 4 14 -3 7 10 30 29 50 19 20 32 35 28 35 -3 -1 -16 -4 -29
-6z"/>
<path d="M2123 1087 c-23 -7 -48 -17 -54 -24 -21 -21 16 -27 45 -8 24 16 56
23 114 24 13 1 20 5 17 11 -8 13 -68 11 -122 -3z"/>
<path d="M2662 1088 c-18 -18 -15 -28 8 -28 25 0 27 -35 3 -49 -14 -8 -15 -12
-6 -22 9 -9 15 -6 24 14 7 15 16 27 21 27 4 0 8 7 8 16 0 10 6 14 14 11 10 -4
12 0 9 14 -6 21 -23 36 -23 20 0 -6 -7 -11 -15 -11 -8 0 -15 5 -15 10 0 14
-13 13 -28 -2z"/>
<path d="M2871 1080 c-25 -15 -1 -29 44 -26 46 2 68 12 44 20 -35 11 -76 14
-88 6z"/>
<path d="M1518 1063 c-2 -10 4 -25 15 -35 18 -16 8 -36 -13 -23 -5 3 -10 -1
-10 -9 0 -19 11 -21 28 -4 8 8 14 5 23 -15 7 -15 15 -27 19 -27 5 0 7 -8 6
-17 -1 -23 69 -34 143 -22 67 10 82 23 21 17 -47 -5 -103 8 -95 22 3 4 -3 6
-14 3 -17 -4 -61 37 -61 57 0 14 45 5 60 -12 8 -9 26 -20 40 -24 22 -6 24 -5
11 10 -8 9 -20 15 -27 12 -7 -3 -15 2 -18 10 -8 20 22 30 45 16 23 -15 32 -15
24 -2 -9 15 37 12 58 -4 10 -8 15 -20 11 -30 -5 -12 -2 -15 10 -10 10 4 16 18
16 35 0 42 -34 46 -202 23 -44 -6 -48 -5 -59 20 -14 30 -26 33 -31 9z"/>
<path d="M918 1038 c3 -18 7 -27 9 -20 8 20 21 14 31 -17 9 -27 72 -71 72 -50
0 5 -5 9 -11 9 -5 0 -8 4 -4 10 3 5 -12 27 -33 49 -22 22 -37 43 -34 46 3 3
-4 5 -15 5 -16 0 -19 -5 -15 -32z"/>
<path d="M2775 1057 c-19 -23 -17 -57 6 -81 20 -21 59 -26 59 -7 0 11 -47 61
-52 55 -3 -2 -3 7 -1 21 6 28 3 30 -12 12z"/>
<path d="M2817 1053 c-2 -5 3 -21 13 -36 l17 -28 7 23 c10 38 7 48 -13 48 -11
0 -22 -3 -24 -7z"/>
<path d="M1293 988 c0 -15 4 -25 9 -22 4 3 8 -2 8 -11 0 -8 7 -18 15 -21 29
-12 15 -27 -19 -21 -27 4 -34 2 -30 -8 4 -8 18 -12 40 -11 30 3 34 0 34 -21 0
-14 4 -21 10 -18 6 3 10 -1 10 -9 0 -9 -5 -16 -10 -16 -7 0 -7 -6 -1 -18 11
-20 11 -62 0 -62 -4 0 -9 -9 -12 -20 -6 -23 11 -27 19 -5 4 8 10 15 16 15 5 0
7 -4 4 -9 -3 -5 12 -23 34 -41 22 -18 40 -37 40 -42 0 -5 -7 -2 -16 6 -8 9
-20 14 -25 11 -5 -4 -9 1 -9 10 0 17 -21 17 -22 0 -1 -6 -8 -15 -16 -21 -12
-9 -9 -10 15 -7 19 3 36 -1 46 -12 15 -15 19 -15 39 -1 12 9 31 16 41 16 17 0
18 2 6 16 -11 13 -10 17 4 26 24 13 11 31 -13 18 -46 -24 -91 4 -117 73 -13
37 -17 87 -5 88 4 0 19 3 35 5 19 3 27 0 27 -10 0 -8 -6 -17 -12 -19 -8 -3 -6
-6 5 -6 10 -1 17 6 17 16 0 13 6 11 29 -11 38 -36 57 -81 43 -99 -8 -9 0 -12
34 -13 24 0 44 2 44 6 0 12 -24 30 -41 30 -11 0 -20 11 -24 28 -3 16 -20 44
-37 63 -27 30 -38 34 -79 34 -26 0 -45 3 -43 6 2 4 -12 26 -31 50 -19 24 -35
48 -35 54 0 5 7 -1 16 -13 17 -25 54 -48 54 -33 0 5 -9 12 -19 16 -11 3 -23
14 -26 24 -3 12 -14 18 -29 17 -18 -1 -23 -7 -23 -28z"/>
<path d="M815 952 c4 -20 8 -51 9 -67 2 -17 10 -42 19 -55 16 -24 17 -29 17
-50 0 -5 7 -10 16 -10 10 0 13 6 9 19 -8 26 33 36 57 14 17 -15 18 -15 18 4 0
11 -9 32 -20 46 -11 14 -20 33 -20 44 0 24 -17 49 -26 40 -4 -4 -2 -17 3 -30
13 -29 3 -81 -16 -85 -10 -2 -12 4 -7 23 5 20 4 25 -6 19 -7 -4 -10 -4 -6 1 8
8 -19 66 -36 77 -8 6 -7 8 1 8 7 0 19 -13 28 -30 18 -35 29 -39 20 -7 -12 42
-27 65 -47 71 -19 4 -20 1 -13 -32z"/>
<path d="M930 974 c0 -6 11 -28 25 -48 22 -32 37 -67 17 -41 -4 6 -14 16 -23
23 -14 11 -16 9 -11 -13 2 -14 11 -25 18 -25 8 0 14 -10 14 -24 0 -13 6 -24
13 -23 36 1 57 -4 55 -15 -3 -13 55 -27 120 -27 36 -1 44 -5 52 -27 6 -14 13
-23 17 -21 5 2 16 -4 26 -15 9 -10 14 -18 11 -18 -19 0 21 -29 47 -34 17 -3
28 -10 24 -16 -3 -5 -1 -10 4 -10 13 0 13 0 0 39 -10 30 -29 43 -29 20 0 -5
-5 -7 -10 -4 -6 3 -7 17 -4 31 7 26 -13 35 -22 9 -4 -8 -11 -15 -16 -15 -6 0
-7 7 -4 16 3 8 2 13 -3 10 -16 -10 -20 36 -5 59 8 13 12 30 7 41 -6 17 -5 18
11 5 9 -8 15 -22 13 -32 -3 -12 1 -17 14 -16 12 1 15 5 8 13 -5 6 -7 19 -3 27
4 12 -2 18 -20 23 -28 7 -96 64 -96 81 0 6 -6 16 -14 22 -12 10 -17 8 -26 -8
-8 -17 -7 -24 10 -41 11 -11 27 -20 35 -20 8 0 15 -4 15 -10 0 -5 7 -10 15
-10 8 0 15 -9 15 -20 0 -19 -4 -22 -32 -24 -7 -1 -19 -7 -26 -13 -22 -21 -83
-15 -127 11 -29 18 -43 22 -52 14 -9 -7 -13 -7 -13 0 0 6 4 12 9 14 15 5 20
66 7 77 -7 6 -16 8 -19 4 -4 -3 -15 5 -26 18 -11 13 -20 19 -21 13z"/>
<path d="M1099 970 c-1 -3 -2 -19 -3 -36 -2 -23 2 -30 11 -27 15 6 17 32 3 53
-5 8 -10 13 -11 10z"/>
<path d="M2850 954 c0 -11 9 -27 20 -37 25 -21 29 -66 5 -59 -5 2 -3 -4 7 -14
9 -9 21 -13 27 -10 25 16 4 82 -38 120 -21 19 -21 19 -21 0z"/>
<path d="M2690 952 c0 -4 5 -13 12 -20 20 -20 -11 -38 -69 -41 -8 -1 -11 -11
-7 -30 6 -27 4 -28 -25 -25 -22 3 -31 -1 -31 -11 0 -30 58 -18 97 20 20 19 33
35 30 35 -4 0 2 9 13 20 11 11 20 23 20 28 0 4 -9 13 -20 20 -11 7 -20 9 -20
4z"/>
<path d="M1040 905 c9 -10 9 -15 1 -15 -6 0 -11 -9 -11 -20 0 -16 7 -20 35
-20 19 0 35 5 35 11 0 6 7 9 15 6 8 -4 17 -2 20 4 11 17 -24 21 -56 5 -26 -13
-29 -13 -19 -1 15 19 6 45 -16 45 -13 0 -14 -3 -4 -15z"/>
<path d="M1990 869 c0 -6 6 -9 14 -6 10 4 18 -4 25 -24 5 -16 15 -29 20 -29
17 0 13 15 -10 44 -21 26 -49 35 -49 15z"/>
<path d="M440 840 c28 -22 40 -25 40 -10 0 11 -33 30 -52 30 -7 0 -2 -9 12
-20z"/>
<path d="M2950 852 c0 -4 6 -14 13 -21 10 -10 7 -11 -15 -6 -19 5 -28 3 -28
-5 0 -6 -4 -9 -9 -6 -11 7 -21 -17 -21 -52 -1 -32 -21 -62 -42 -62 -9 0 -23
11 -32 25 -21 32 -36 32 -36 0 0 -34 20 -75 37 -75 12 0 11 4 -1 22 -24 34
-20 53 5 29 24 -23 74 -22 74 1 0 9 6 23 14 32 7 9 11 25 8 36 -8 31 1 24 23
-20 11 -22 25 -40 31 -40 8 0 8 4 0 14 -9 11 -9 15 1 19 8 4 5 8 -10 13 -20 6
-21 8 -8 23 15 17 19 33 17 64 -1 16 -21 25 -21 9z"/>
<path d="M2760 843 c-21 -8 -39 -34 -40 -56 0 -15 -3 -16 -21 -6 -13 7 -19 7
-15 1 3 -6 2 -13 -4 -17 -12 -7 -14 -36 -2 -33 4 0 15 -2 24 -6 20 -9 13 -37
-7 -30 -10 4 -13 -2 -12 -23 2 -20 8 -28 22 -28 11 0 20 7 21 15 3 41 6 54 11
43 8 -22 29 -14 31 12 2 25 -13 35 -20 13 -3 -7 -12 -9 -23 -5 -16 7 -15 10
14 36 17 16 31 32 30 37 -4 21 2 35 11 29 6 -3 10 1 10 9 0 17 -5 18 -30 9z"/>
<path d="M1473 822 c-1 -9 10 -25 23 -35 23 -17 23 -17 17 0 -4 10 -14 26 -23
35 -15 16 -16 16 -17 0z"/>
<path d="M1432 793 c18 -43 46 -69 59 -56 8 8 6 16 -7 31 -11 11 -25 28 -32
36 -21 26 -33 19 -20 -11z"/>
<path d="M2835 802 c-6 -4 -11 -19 -13 -34 -2 -24 0 -26 25 -23 29 3 31 15 10
46 -7 10 -17 15 -22 11z"/>
<path d="M238 782 c-10 -2 -18 -8 -18 -13 0 -12 24 -22 44 -17 22 5 -4 35 -26
30z"/>
<path d="M1283 776 c5 -14 39 -15 44 -1 1 6 -8 11 -22 11 -16 1 -24 -3 -22
-10z"/>
<path d="M2393 767 c-4 -7 -8 -19 -10 -27 -1 -8 -11 -23 -23 -32 -15 -12 -22
-30 -23 -62 -2 -46 15 -69 21 -28 2 12 -1 22 -7 22 -16 0 30 78 56 95 13 9 23
19 23 24 0 15 -29 21 -37 8z"/>
<path d="M2582 768 c7 -19 56 -21 74 -4 14 15 14 16 0 16 -9 0 -16 -5 -16 -10
0 -7 -6 -7 -19 0 -27 14 -44 13 -39 -2z"/>
<path d="M87 758 c-9 -26 15 -57 42 -55 38 3 38 32 0 51 -38 19 -36 19 -42 4z"/>
<path d="M2295 670 c-11 -12 -27 -19 -37 -17 -19 5 -26 -9 -7 -15 11 -4 -16
-58 -53 -107 -19 -24 -24 -61 -10 -61 5 0 9 6 9 13 0 17 81 138 109 162 14 13
20 25 15 33 -6 9 -12 7 -26 -8z"/>
<path d="M2247 508 c-2 -7 -5 -17 -5 -22 0 -5 -6 -13 -14 -17 -10 -7 -9 -9 5
-9 9 0 17 6 18 13 0 6 4 1 10 -11 5 -13 7 -27 4 -32 -3 -4 2 -10 10 -13 10 -4
12 -1 8 10 -4 11 -2 14 5 9 16 -10 14 5 -3 28 -8 11 -15 28 -15 38 0 21 -15
24 -23 6z"/>
<path d="M2098 435 c-8 -18 -17 -24 -29 -20 -9 3 -21 0 -25 -6 -5 -9 -2 -10 9
-6 19 7 23 -8 5 -17 -7 -3 -2 -4 12 -3 18 1 25 -3 24 -15 -1 -10 2 -15 7 -12
5 3 9 11 9 17 0 13 48 16 68 4 9 -6 9 -13 2 -28 -13 -24 -2 -25 16 -1 17 21
18 46 2 36 -8 -5 -9 -2 -5 9 3 9 -1 24 -11 33 -16 16 -17 16 -20 1 -4 -22 -22
-22 -22 -1 0 14 -3 14 -15 4 -18 -15 -20 1 -3 18 9 9 9 12 0 12 -7 0 -18 -11
-24 -25z"/>
<path d="M1132 403 c4 -13 2 -26 -3 -29 -5 -3 -9 -10 -9 -15 0 -14 18 -2 30
21 7 13 5 21 -7 31 -15 12 -16 11 -11 -8z"/>
<path d="M1056 373 c7 -43 14 -56 14 -25 0 11 5 24 12 28 6 4 8 3 5 -3 -4 -6
0 -13 8 -17 11 -4 15 2 15 20 0 14 -4 22 -10 19 -5 -3 -19 -1 -30 5 -19 10
-20 8 -14 -27z"/>
<path d="M2380 400 c0 -14 31 -41 41 -35 15 10 10 19 -16 32 -14 6 -25 7 -25
3z"/>
<path d="M2298 232 c-7 -25 7 -51 21 -37 6 7 5 18 -3 34 -12 22 -13 23 -18 3z"/>
</g>
</svg>
